<svg version="1.2" xmlns="http://www.w3.org/2000/svg" viewBox="0 0 1486 920" width="1486" height="920">
	<title>404-svg</title>
	<defs>
		<clipPath clipPathUnits="userSpaceOnUse" id="cp1">
			<path d="m719.73 266.5l-6.68 12.78c-3.19 6.09-5.18 12.74-5.87 19.58l-2.95 29.14-167.11 165.4c-17.29 17.11-21.81 43.32-11.26 65.23l117.87 244.87q-42.98 12.79-57.5 27.5-14.53 14.71-8.5 39.34l118.5 0.16 12-37.5 4.07-20.16c0.66-3.25 3.82-5.35 7.07-4.69 1.97 0.39 3.61 1.75 4.37 3.61l23.99 58.74h23l-19-88q-8.89-22.66-15-34.5-6.12-11.83-16.97-27.36l-97.53-187.14 140-179.5 129.5 459.5q-41.34 7.36-52.5 20-11.17 12.65-4.5 38h141l-3.08-57.94c-0.09-1.65 1.18-3.06 2.83-3.15 1.27-0.07 2.44 0.67 2.93 1.84l24.82 59.25h22q-19.36-68.04-25-87c-5.93-19.89-28.5-50-24.5-36.5 0 0-16.42-61.35-46.5-141-9.74-25.77-26.63-56.17-37.36-83.48q-28.05-71.33-68.02-173.03c-4.8-12.22-2.87-34.5-11.62-56.75q-3.74-9.51-21-26.24z"/>
		</clipPath>
		<clipPath clipPathUnits="userSpaceOnUse" id="cp2">
			<path d="m693.23 139.5l-209-50.5-69 207 93 6 34.5-120.5 161.5 22.5 11 62.56h76l8-78.06 154 252 72 22 13-22-56-160.5-156.5-146.5q-45.03 11.58-65 10.56-50-2.56-67.5-4.56z"/>
		</clipPath>
		<clipPath clipPathUnits="userSpaceOnUse" id="cp3">
			<path d="m784.83 77.29c-0.02-15.96-11.3-30.39-27.67-33.94l-4.93-1.06c-18.76-4.06-37.11 7.7-40.99 26.27l-2.13 10.23c-2.7 12.92 5.7 25.68 18.75 28.51l12.41 2.68-6.9 33.14q5.64 6.22 17.21 8.28 11.58 2.07 19.49-2.35l11.99-58.22q1.33-3.09 2.05-6.5 0.73-3.52 0.72-6.98l0.02-0.06z"/>
		</clipPath>
		<clipPath clipPathUnits="userSpaceOnUse" id="cp4">
			<path d="m609.14 382.31l-16.22 56.57-52.24-14.98-12.16 42.42-67.17-19.26 12.16-42.42-184.34-52.86 16.22-56.57 230.65-108.65 67.17 19.26-46.31 161.51zm-230.7-66.17l111.51 31.97 27.29-95.16z"/>
		</clipPath>
		<clipPath clipPathUnits="userSpaceOnUse" id="cp5">
			<path d="m1155.45 346.35l31.19 49.91-46.09 28.8 23.38 37.42-59.26 37.03-23.38-37.42-162.64 101.62-31.18-49.9 73.6-244.12 59.26-37.03 89.03 142.49zm-203.54 127.17l98.37-61.48-52.46-83.95z"/>
		</clipPath>
	</defs>
	<style>
		.s0 { fill: #ff567b } 
		.s1 { fill: #002d6f } 
		.s2 { fill: #ffe694 } 
		.s3 { fill: #56aaff } 
		.s4 { fill: #ff9c99 } 
	</style>
	<g id="Clip-Path" clip-path="url(#cp1)">
		<g id="Layer">
			<path id="Layer" class="s0" d="m719.7 266.5l-6.7 12.8c-3.1 6.1-5.1 12.7-5.8 19.6l-3 29.1-167.1 165.4c-17.3 17.1-21.8 43.3-11.2 65.2l117.8 244.9q-42.9 12.8-57.5 27.5-14.5 14.7-8.5 39.3l118.5 0.2 12-37.5 4.1-20.2c0.7-3.2 3.8-5.3 7.1-4.6 1.9 0.3 3.6 1.7 4.3 3.6l24 58.7h23l-19-88q-8.9-22.7-15-34.5-6.1-11.8-16.9-27.4l-97.6-187.1 140-179.5 129.5 459.5q-41.3 7.4-52.5 20-11.1 12.6-4.5 38h141l-3-57.9c-0.1-1.7 1.1-3.1 2.8-3.2 1.2-0.1 2.4 0.7 2.9 1.8l24.8 59.3h22q-19.3-68-25-87c-5.9-19.9-28.5-50-24.5-36.5 0 0-16.4-61.4-46.5-141-9.7-25.8-26.6-56.2-37.3-83.5q-28.1-71.3-68.1-173c-4.8-12.2-2.8-34.5-11.6-56.8q-3.7-9.5-21-26.2z"/>
			<path id="Layer" fill-rule="evenodd" class="s1" d="m611.7 747.5l129.5-32.5 59 163.5h-235z"/>
			<path id="Layer" fill-rule="evenodd" class="s1" d="m857.7 734.5l128 12 68.5 160h-235z"/>
		</g>
	</g>
	<g id="Clip-Path" clip-path="url(#cp2)">
		<g id="Layer">
			<path id="Layer" class="s2" d="m693.2 139.5l-209-50.5-69 207 93 6 34.5-120.5 161.5 22.5 11 62.6h76l8-78.1 154 252 72 22 13-22-56-160.5-156.5-146.5q-45 11.6-65 10.6-50-2.6-67.5-4.6z"/>
			<path id="Layer" fill-rule="evenodd" class="s1" d="m804.6 211.8c-0.6 0-1.1-0.3-1.2-0.9 0-0.5 0.4-1 0.9-1.1l6.6-0.9c0.5-0.1 1 0.3 1.1 0.8 0.1 0.6-0.3 1.1-0.9 1.2zm0.3-10.4c-0.6 0.1-1.1-0.3-1.1-0.8-0.1-0.6 0.3-1.1 0.8-1.2l6.6-0.9c0.6 0 1.1 0.3 1.1 0.9 0.1 0.5-0.3 1-0.9 1.1zm27 6.5c-0.5 0-1-0.3-1.1-0.9-0.1-0.5 0.3-1 0.9-1.1l6.6-0.9c0.5-0.1 1 0.3 1.1 0.8 0 0.6-0.4 1.1-0.9 1.2zm0.2-10.4c-0.5 0.1-1-0.3-1.1-0.8 0-0.6 0.4-1.1 0.9-1.2l6.6-0.9c0.5 0 1 0.3 1.1 0.9 0.1 0.5-0.3 1-0.9 1.1zm-14.1 12.9c-0.6 0.1-1.1-0.2-1.2-0.8-0.1-0.5 0.2-1 0.8-1.1l6.4-1.4c0.6-0.1 1.1 0.2 1.2 0.7 0.1 0.6-0.2 1.1-0.8 1.2zm0.3-10.3c-0.6 0.1-1.1-0.3-1.2-0.8-0.1-0.5 0.2-1.1 0.8-1.2l6.4-1.3c0.6-0.2 1.1 0.2 1.2 0.7 0.1 0.5-0.3 1.1-0.8 1.2zm27 6.5c-0.6 0.1-1.1-0.3-1.2-0.8-0.1-0.5 0.3-1.1 0.8-1.2l6.4-1.4c0.6-0.1 1.1 0.3 1.2 0.8 0.1 0.5-0.2 1.1-0.8 1.2zm0.3-10.4c-0.6 0.1-1.1-0.2-1.2-0.7-0.1-0.6 0.2-1.1 0.8-1.2l6.4-1.4c0.6-0.1 1.1 0.2 1.2 0.8 0.1 0.5-0.2 1-0.8 1.1zm13.6 7.8c-0.5 0.1-1-0.3-1.1-0.8 0-0.5 0.4-1 0.9-1.1l6.6-0.9c0.5-0.1 1 0.3 1.1 0.8 0.1 0.6-0.3 1.1-0.9 1.1zm0.3-10.3c-0.6 0.1-1.1-0.3-1.1-0.9-0.1-0.5 0.3-1 0.8-1.1l6.6-0.9c0.6-0.1 1.1 0.3 1.1 0.9 0.1 0.5-0.3 1-0.9 1.1zm13.1 9c-0.5 0.1-1-0.2-1.1-0.8-0.2-0.5 0.2-1 0.7-1.1l6.5-1.4c0.5-0.1 1.1 0.2 1.2 0.7 0.1 0.6-0.3 1.1-0.8 1.2zm0.2-10.3c-0.5 0.1-1.1-0.3-1.2-0.8-0.1-0.5 0.3-1.1 0.8-1.2l6.5-1.3c0.5-0.2 1 0.2 1.2 0.7 0.1 0.5-0.3 1.1-0.8 1.2zm-67.6-1.2c-0.6 0-1.1-0.3-1.1-0.9-0.1-0.5 0.3-1 0.9-1.1l6.5-0.9c0.6-0.1 1.1 0.3 1.1 0.8 0.1 0.6-0.3 1.1-0.8 1.2zm27.2-3.9c-0.6 0-1.1-0.3-1.1-0.9-0.1-0.5 0.3-1 0.9-1.1l6.5-0.9c0.6-0.1 1.1 0.3 1.1 0.8 0.1 0.6-0.3 1.1-0.8 1.2zm-13.9 2.5c-0.6 0.1-1.1-0.2-1.2-0.7-0.1-0.6 0.2-1.1 0.8-1.2l6.4-1.4c0.6-0.1 1.1 0.2 1.2 0.8 0.1 0.5-0.3 1-0.8 1.1zm27.2-3.9c-0.5 0.2-1-0.2-1.1-0.7-0.1-0.5 0.2-1.1 0.8-1.2l6.4-1.4c0.5-0.1 1.1 0.3 1.2 0.8 0.1 0.5-0.3 1.1-0.8 1.2zm13.9-2.6c-0.6 0.1-1.1-0.3-1.1-0.8-0.1-0.6 0.3-1.1 0.8-1.1l6.6-0.9c0.6-0.1 1.1 0.3 1.1 0.8 0.1 0.5-0.3 1-0.9 1.1zm13.4-1.3c-0.6 0.1-1.1-0.3-1.2-0.8-0.1-0.5 0.3-1 0.8-1.2l6.4-1.3c0.6-0.2 1.1 0.2 1.2 0.7 0.1 0.5-0.2 1.1-0.8 1.2zm-67.6-1.2c-0.5 0-1-0.3-1.1-0.9 0-0.5 0.4-1 0.9-1.1l6.6-0.9c0.5-0.1 1 0.3 1.1 0.8 0.1 0.6-0.3 1.1-0.9 1.2zm27.2-3.9c-0.5 0.1-1-0.3-1.1-0.9 0-0.5 0.4-1 0.9-1.1l6.6-0.9c0.5-0.1 1 0.3 1.1 0.9 0.1 0.5-0.3 1-0.9 1.1zm-13.9 2.5c-0.5 0.1-1.1-0.2-1.2-0.7-0.1-0.6 0.3-1.1 0.8-1.2l6.5-1.4c0.5-0.1 1 0.2 1.1 0.8 0.1 0.5-0.2 1-0.8 1.1zm27.3-3.8c-0.6 0.1-1.1-0.3-1.2-0.8-0.1-0.5 0.2-1.1 0.8-1.2l6.4-1.4c0.6-0.1 1.1 0.3 1.2 0.8 0.1 0.5-0.2 1.1-0.8 1.2zm13.9-2.6c-0.6 0.1-1.1-0.3-1.1-0.8-0.1-0.6 0.3-1.1 0.9-1.1l6.5-0.9c0.6-0.1 1.1 0.3 1.1 0.8 0.1 0.5-0.3 1-0.8 1.1zm13.3-1.3c-0.5 0.1-1.1-0.2-1.2-0.8-0.1-0.5 0.3-1 0.8-1.2l6.5-1.3c0.5-0.2 1 0.2 1.1 0.7 0.1 0.6-0.2 1.1-0.8 1.2zm-67.5-1.2c-0.6 0.1-1.1-0.3-1.1-0.9-0.1-0.5 0.3-1 0.8-1.1l6.6-0.9c0.6-0.1 1.1 0.3 1.1 0.9 0.1 0.5-0.3 1-0.9 1.1zm27.3-3.9c-0.6 0.1-1.1-0.3-1.1-0.9-0.1-0.5 0.3-1 0.9-1.1l6.5-0.9c0.6-0.1 1.1 0.3 1.1 0.9 0.1 0.5-0.3 1-0.9 1.1zm-13.9 2.5c-0.5 0.1-1-0.2-1.1-0.7-0.1-0.6 0.2-1.1 0.8-1.2l6.4-1.4c0.5-0.1 1.1 0.2 1.2 0.8 0.1 0.5-0.3 1-0.8 1.2zm27.2-3.9c-0.5 0.1-1-0.3-1.2-0.8-0.1-0.5 0.3-1.1 0.8-1.2l6.5-1.4c0.5-0.1 1 0.3 1.2 0.8 0.1 0.5-0.3 1.1-0.8 1.2zm13.9-2.6c-0.6 0.1-1.1-0.3-1.2-0.8 0-0.6 0.4-1.1 0.9-1.1l6.6-0.9c0.5-0.1 1 0.3 1.1 0.8 0.1 0.5-0.3 1.1-0.9 1.1zm13.4-1.3c-0.6 0.1-1.1-0.2-1.2-0.8-0.1-0.5 0.2-1 0.8-1.2l6.4-1.3c0.6-0.1 1.1 0.2 1.2 0.7 0.1 0.6-0.3 1.1-0.8 1.2zm-67.6-1.2c-0.5 0.1-1-0.3-1.1-0.9-0.1-0.5 0.3-1 0.9-1.1l6.6-0.9c0.5-0.1 1 0.3 1.1 0.9 0 0.5-0.4 1-0.9 1.1zm27.2-3.9c-0.5 0.1-1-0.3-1.1-0.9-0.1-0.5 0.3-1 0.9-1.1l6.6-0.9c0.5-0.1 1 0.3 1.1 0.9 0 0.5-0.4 1-0.9 1.1zm-13.9 2.5c-0.6 0.2-1.1-0.2-1.2-0.7-0.1-0.6 0.3-1.1 0.8-1.2l6.4-1.4c0.6-0.1 1.1 0.2 1.2 0.8 0.1 0.5-0.2 1-0.8 1.2zm27.3-3.9c-0.6 0.1-1.1-0.3-1.2-0.8-0.1-0.5 0.2-1.1 0.8-1.2l6.4-1.4c0.6-0.1 1.1 0.3 1.2 0.8 0.1 0.5-0.3 1.1-0.8 1.2zm13.9-2.6c-0.6 0.1-1.1-0.3-1.1-0.8-0.1-0.6 0.3-1.1 0.9-1.1l6.5-0.9c0.6-0.1 1.1 0.3 1.1 0.8 0.1 0.6-0.3 1.1-0.9 1.1zm13.4-1.3c-0.6 0.1-1.1-0.2-1.2-0.8-0.1-0.5 0.3-1 0.8-1.1l6.4-1.4c0.6-0.1 1.1 0.2 1.2 0.7 0.1 0.6-0.2 1.1-0.8 1.2zm-40.3-5.1c-0.6 0.1-1.1-0.3-1.1-0.9-0.1-0.5 0.3-1 0.9-1.1l6.5-0.9c0.6 0 1.1 0.3 1.1 0.9 0.1 0.5-0.3 1-0.8 1.1zm-13.9 2.5c-0.6 0.2-1.1-0.2-1.2-0.7-0.1-0.5 0.2-1.1 0.8-1.2l6.4-1.4c0.6-0.1 1.1 0.3 1.2 0.8 0.1 0.5-0.3 1-0.8 1.2zm27.2-3.9c-0.5 0.1-1-0.3-1.1-0.8-0.1-0.5 0.2-1 0.8-1.2l6.4-1.3c0.5-0.2 1.1 0.2 1.2 0.7 0.1 0.5-0.3 1.1-0.8 1.2zm-37.3 4.8l-3.3 0.4c-1.3 0.2-1.6-1.7-0.2-1.9l3.2-0.5 3.3-0.4c1.4-0.2 1.6 1.7 0.3 1.9zm0 0l-0.3-1.9zm54.3-9.8c1.3-0.2 1.5 1.8 0.2 2l-3.3 0.4c-1.3 0.2-1.5-1.8-0.2-1.9l3.3-0.5 3.3-0.4c1.3-0.2 1.5 1.7 0.2 1.9l-3.3 0.5c-1.3 0.2-1.6-1.8-0.2-2zm0.2 2l-0.2-2zm10-0.9c-0.5 0.1-1-0.2-1.1-0.7-0.1-0.6 0.2-1.1 0.8-1.2l6.4-1.4c0.5-0.1 1.1 0.2 1.2 0.8 0.1 0.5-0.3 1-0.8 1.1zm-155 16.5c0-0.5 0.4-1 1-1 0.5 0 1 0.4 1 0.9l0.2 6.5c0 0.6-0.4 1.1-1 1.1-0.5 0-1-0.4-1-1zm10.4 0.9c0-0.5 0.4-1 1-1 0.5 0 1 0.4 1 0.9l0.2 6.6c0 0.5-0.4 1-1 1-0.5 0-1-0.4-1-0.9zm-9.5 26.1c0-0.6 0.4-1 1-1.1 0.5 0 1 0.4 1 1l0.2 6.5c0 0.5-0.5 1-1 1-0.6 0.1-1-0.4-1-0.9zm10.4 0.9c0-0.5 0.4-1 1-1 0.5-0.1 1 0.3 1 0.9l0.2 6.5c0 0.6-0.4 1-1 1.1-0.6 0-1-0.4-1-1zm-11.5-14.7c-0.1-0.6 0.4-1.1 0.9-1.1 0.6-0.1 1 0.3 1.1 0.8l0.7 6.4c0 0.6-0.4 1.1-0.9 1.2-0.6 0-1.1-0.4-1.1-0.9zm10.4 0.9c0-0.5 0.4-1 0.9-1.1 0.6-0.1 1.1 0.3 1.1 0.9l0.7 6.4c0 0.5-0.4 1-0.9 1.1-0.6 0-1.1-0.3-1.1-0.9zm-9.5 26.1c-0.1-0.5 0.3-1 0.9-1.1 0.5 0 1 0.3 1.1 0.9l0.6 6.4c0.1 0.5-0.3 1-0.8 1.1-0.6 0.1-1.1-0.3-1.2-0.8zm10.5 0.9c-0.1-0.6 0.3-1.1 0.9-1.2 0.5 0 1 0.4 1.1 0.9l0.7 6.4c0 0.6-0.4 1.1-0.9 1.1-0.6 0.1-1.1-0.3-1.1-0.8zm-9.4 12.9c-0.1-0.6 0.4-1 0.9-1.1 0.6 0 1.1 0.4 1.1 1l0.2 6.5c0 0.5-0.5 1-1 1-0.6 0.1-1-0.3-1.1-0.9zm10.5 0.9c0-0.5 0.4-1 0.9-1 0.6-0.1 1.1 0.4 1.1 0.9l0.2 6.5c0 0.6-0.5 1-1 1.1-0.6 0-1-0.4-1-1zm-10.6 12.3c-0.1-0.5 0.3-1 0.9-1.1 0.5-0.1 1 0.3 1.1 0.9l0.7 6.4c0 0.5-0.4 1-0.9 1.1-0.6 0.1-1.1-0.3-1.1-0.9zm10.4 0.9c-0.1-0.5 0.3-1 0.9-1.1 0.6 0 1 0.3 1.1 0.9l0.7 6.4c0 0.5-0.4 1-0.9 1.1-0.6 0.1-1.1-0.3-1.1-0.8zm8.7-66.4c0-0.6 0.4-1 1-1 0.5-0.1 1 0.3 1 0.9l0.2 6.5c0 0.6-0.4 1-1 1.1-0.5 0-1-0.4-1-1zm0.9 27c0-0.5 0.4-1 1-1 0.5 0 1 0.4 1 0.9l0.2 6.5c0 0.6-0.4 1.1-1 1.1-0.5 0-1-0.4-1-0.9zm-1-13.9c-0.1-0.5 0.3-1 0.9-1.1 0.5-0.1 1 0.3 1.1 0.9l0.6 6.4c0.1 0.5-0.3 1-0.9 1.1-0.5 0.1-1-0.3-1.1-0.9zm0.9 27.1c0-0.6 0.4-1.1 0.9-1.1 0.6-0.1 1.1 0.3 1.1 0.8l0.7 6.4c0.1 0.6-0.3 1.1-0.9 1.1-0.5 0.1-1-0.3-1.1-0.8zm1.1 13.8c-0.1-0.5 0.4-1 0.9-1 0.6-0.1 1 0.4 1.1 0.9l0.1 6.5c0.1 0.6-0.4 1-0.9 1.1-0.6 0-1-0.4-1.1-1zm-0.1 13.2c0-0.5 0.4-1 0.9-1.1 0.6-0.1 1.1 0.3 1.1 0.9l0.7 6.4c0 0.5-0.4 1-0.9 1.1-0.6 0.1-1.1-0.3-1.1-0.9zm8.7-66.3c0-0.6 0.4-1 1-1.1 0.6 0 1 0.4 1 1l0.2 6.5c0 0.5-0.4 1-1 1-0.5 0.1-1-0.4-1-0.9zm0.9 27c0-0.5 0.4-1 1-1 0.5 0 1 0.4 1 0.9l0.2 6.5c0 0.6-0.4 1-1 1.1-0.5 0-1-0.4-1-1zm-1-13.8c-0.1-0.5 0.3-1 0.9-1.1 0.5-0.1 1 0.3 1.1 0.9l0.6 6.4c0.1 0.5-0.3 1-0.9 1.1-0.5 0.1-1-0.3-1.1-0.9zm1 27.1c-0.1-0.6 0.3-1.1 0.8-1.2 0.6 0 1.1 0.4 1.2 0.9l0.6 6.4c0.1 0.6-0.3 1.1-0.9 1.1-0.5 0.1-1-0.3-1.1-0.8zm1.1 13.8c-0.1-0.6 0.4-1 0.9-1.1 0.6 0 1.1 0.4 1.1 1l0.2 6.5c0 0.5-0.5 1-1 1-0.6 0.1-1-0.3-1.1-0.9zm-0.1 13.2c0-0.5 0.4-1 0.9-1.1 0.6-0.1 1.1 0.3 1.1 0.9l0.7 6.4c0.1 0.5-0.3 1-0.9 1.1-0.5 0-1-0.3-1.1-0.9zm8.7-66.3c0-0.6 0.5-1 1-1.1 0.6 0 1 0.4 1 1l0.2 6.5c0 0.5-0.4 1-1 1-0.5 0-1-0.4-1-0.9zm0.9 27c0-0.5 0.4-1 1-1 0.6-0.1 1 0.4 1 0.9l0.2 6.5c0 0.6-0.4 1-1 1.1-0.5 0-1-0.4-1-1zm-1-13.8c-0.1-0.5 0.3-1 0.9-1.1 0.5-0.1 1 0.3 1.1 0.8l0.7 6.5c0 0.5-0.4 1-0.9 1.1-0.6 0-1.1-0.3-1.1-0.9zm0.9 27c-0.1-0.5 0.3-1 0.9-1.1 0.5 0 1 0.3 1.1 0.9l0.6 6.4c0.1 0.5-0.3 1-0.9 1.1-0.5 0.1-1-0.3-1.1-0.8zm1.1 13.8c0-0.6 0.4-1 0.9-1.1 0.6 0 1.1 0.4 1.1 1l0.2 6.5c0 0.5-0.5 1-1 1-0.6 0.1-1-0.4-1-0.9zm-0.2 13.2c0-0.6 0.4-1 0.9-1.1 0.6-0.1 1.1 0.3 1.1 0.8l0.7 6.5c0.1 0.5-0.3 1-0.9 1.1-0.5 0-1-0.4-1.1-0.9zm8.7-66.4c0-0.5 0.5-1 1-1 0.6 0 1 0.4 1.1 0.9l0.1 6.6c0 0.5-0.4 1-0.9 1-0.6 0-1.1-0.4-1.1-0.9zm0.9 27c0-0.6 0.5-1 1-1.1 0.6 0 1 0.4 1 1l0.2 6.5c0 0.5-0.4 1-1 1-0.5 0.1-1-0.3-1-0.9zm-1-13.8c-0.1-0.6 0.3-1.1 0.9-1.1 0.5-0.1 1 0.3 1.1 0.8l0.7 6.4c0 0.6-0.4 1.1-0.9 1.2-0.6 0-1.1-0.4-1.1-0.9zm0.9 27c-0.1-0.5 0.3-1 0.9-1.1 0.5-0.1 1 0.3 1.1 0.9l0.6 6.4c0.1 0.5-0.3 1-0.9 1.1-0.5 0.1-1-0.3-1.1-0.9zm1.1 13.9c0-0.6 0.4-1.1 1-1.1 0.5 0 1 0.4 1 1l0.2 6.5c0 0.5-0.5 1-1 1-0.6 0-1-0.4-1-0.9zm-0.2 13.2c0-0.6 0.4-1.1 0.9-1.1 0.6-0.1 1.1 0.3 1.1 0.8l0.7 6.4c0.1 0.6-0.3 1.1-0.9 1.1-0.5 0.1-1-0.3-1.1-0.8zm9.7-39.3c-0.1-0.6 0.4-1.1 0.9-1.1 0.6 0 1.1 0.4 1.1 1l0.2 6.5c0 0.5-0.5 1-1 1-0.6 0-1-0.4-1.1-0.9zm-1-13.8c0-0.6 0.4-1.1 0.9-1.2 0.6 0 1.1 0.4 1.1 0.9l0.7 6.4c0 0.6-0.4 1.1-0.9 1.1-0.6 0.1-1.1-0.3-1.1-0.8zm0.9 27c-0.1-0.6 0.3-1 0.9-1.1 0.5-0.1 1 0.3 1.1 0.8l0.7 6.5c0 0.5-0.4 1-0.9 1.1-0.6 0-1.1-0.4-1.1-0.9zm-0.7-37l-0.1-3.2c-0.1-1.3 2-1.4 2-0.1l0.1 3.2 0.1 3.3c0 1.3-2 1.4-2 0.1zm0 0l2-0.1zm3.8 53.9c0 1.4-2 1.5-2 0.1l-0.1-3.2c0-1.3 2-1.4 2-0.1l0.1 3.2 0.1 3.3c0 1.3-2 1.4-2 0.1l-0.1-3.3c0-1.3 2-1.4 2-0.1zm-2 0.1l2-0.1zm-0.2 10c-0.1-0.6 0.3-1.1 0.9-1.1 0.5-0.1 1 0.3 1.1 0.8l0.7 6.4c0 0.6-0.4 1.1-0.9 1.2-0.6 0-1.1-0.4-1.1-0.9zm74.5 22.8c-0.3-0.4-0.1-1 0.3-1.3 0.5-0.3 1.1-0.2 1.4 0.2l3.7 5.4c0.3 0.4 0.2 1-0.3 1.3-0.5 0.4-1.1 0.2-1.4-0.2zm9.5-4.7c-0.3-0.5-0.2-1.1 0.2-1.4 0.5-0.3 1.1-0.2 1.4 0.3l3.7 5.3c0.3 0.5 0.2 1.1-0.3 1.4-0.5 0.3-1.1 0.2-1.4-0.3zm5.9 26.8c-0.3-0.4-0.2-1 0.2-1.3 0.5-0.4 1.1-0.2 1.4 0.2l3.7 5.4c0.3 0.4 0.2 1-0.3 1.3-0.5 0.3-1.1 0.2-1.4-0.2zm9.5-4.7c-0.3-0.5-0.2-1.1 0.3-1.4 0.4-0.3 1-0.2 1.3 0.3l3.7 5.3c0.3 0.4 0.2 1.1-0.3 1.4-0.4 0.3-1.1 0.2-1.4-0.3zm-17.8-6.3c-0.3-0.4-0.2-1 0.2-1.4 0.5-0.3 1.1-0.3 1.4 0.2l4.1 5c0.3 0.4 0.2 1-0.2 1.4-0.5 0.3-1.1 0.3-1.4-0.2zm9.4-4.7c-0.3-0.4-0.2-1 0.2-1.4 0.4-0.3 1.1-0.3 1.4 0.2l4.1 5c0.3 0.4 0.2 1-0.2 1.4-0.5 0.3-1.1 0.3-1.4-0.2zm5.8 26.8c-0.3-0.4-0.3-1 0.2-1.4 0.4-0.3 1.1-0.2 1.4 0.2l4 5c0.4 0.4 0.3 1-0.2 1.4-0.4 0.3-1 0.3-1.4-0.2zm9.5-4.7c-0.3-0.4-0.3-1 0.2-1.4 0.4-0.3 1-0.2 1.4 0.2l4 5c0.4 0.4 0.3 1-0.2 1.4-0.4 0.3-1 0.3-1.4-0.2zm-1.1 15.7c-0.3-0.4-0.2-1 0.3-1.3 0.4-0.3 1.1-0.2 1.4 0.2l3.6 5.4c0.3 0.4 0.2 1-0.3 1.3-0.4 0.4-1.1 0.2-1.4-0.2zm9.5-4.7c-0.3-0.5-0.2-1.1 0.3-1.4 0.5-0.3 1.1-0.2 1.4 0.3l3.6 5.3c0.3 0.5 0.2 1.1-0.2 1.4-0.5 0.3-1.1 0.2-1.4-0.3zm-2.5 15.8c-0.4-0.4-0.3-1 0.2-1.4 0.4-0.3 1-0.2 1.4 0.2l4 5c0.3 0.4 0.3 1-0.2 1.4-0.4 0.3-1 0.3-1.4-0.2zm9.5-4.7c-0.4-0.4-0.3-1 0.1-1.4 0.5-0.3 1.1-0.2 1.5 0.2l4 5c0.3 0.4 0.2 1-0.2 1.4-0.4 0.3-1.1 0.3-1.4-0.2zm-28.1-60c-0.3-0.4-0.2-1 0.3-1.3 0.4-0.4 1-0.2 1.3 0.2l3.7 5.4c0.3 0.4 0.2 1-0.3 1.3-0.4 0.3-1.1 0.2-1.4-0.2zm15.3 22.1c-0.3-0.5-0.2-1.1 0.3-1.4 0.5-0.3 1.1-0.2 1.4 0.3l3.7 5.3c0.3 0.4 0.1 1.1-0.3 1.4-0.5 0.3-1.1 0.2-1.4-0.3zm-8.3-11c-0.4-0.4-0.3-1 0.1-1.4 0.5-0.3 1.1-0.3 1.5 0.2l4 5c0.3 0.4 0.2 1-0.2 1.4-0.4 0.3-1.1 0.3-1.4-0.2zm15.3 22.1c-0.3-0.4-0.3-1 0.2-1.4 0.4-0.3 1-0.2 1.4 0.2l4 5c0.4 0.4 0.3 1-0.2 1.4-0.4 0.3-1 0.3-1.4-0.2zm8.3 11c-0.3-0.4-0.1-1 0.3-1.3 0.5-0.4 1.1-0.2 1.4 0.2l3.7 5.4c0.3 0.4 0.2 1-0.3 1.3-0.5 0.3-1.1 0.2-1.4-0.2zm7 11.1c-0.3-0.4-0.3-1.1 0.2-1.4 0.4-0.4 1-0.3 1.4 0.1l4 5c0.4 0.5 0.3 1.1-0.2 1.4-0.4 0.4-1 0.3-1.4-0.1zm-28.1-60c-0.3-0.5-0.2-1.1 0.3-1.4 0.4-0.3 1.1-0.2 1.4 0.3l3.6 5.3c0.3 0.4 0.2 1.1-0.3 1.4-0.4 0.3-1 0.2-1.3-0.3zm15.3 22.1c-0.3-0.4-0.2-1 0.2-1.3 0.5-0.4 1.1-0.2 1.4 0.2l3.7 5.3c0.3 0.5 0.2 1.1-0.3 1.4-0.5 0.3-1.1 0.2-1.4-0.2zm-8.3-11c-0.3-0.4-0.3-1.1 0.2-1.4 0.4-0.4 1-0.3 1.4 0.1l4 5c0.4 0.4 0.3 1.1-0.2 1.4-0.4 0.4-1 0.3-1.4-0.1zm15.3 22.1c-0.3-0.4-0.2-1.1 0.2-1.4 0.4-0.4 1.1-0.3 1.4 0.1l4 5c0.4 0.5 0.3 1.1-0.1 1.4-0.5 0.4-1.1 0.3-1.4-0.1zm8.3 11c-0.3-0.5-0.2-1.1 0.3-1.4 0.4-0.3 1-0.2 1.3 0.3l3.7 5.3c0.3 0.5 0.2 1.1-0.3 1.4-0.4 0.3-1.1 0.2-1.4-0.3zm7 11.1c-0.3-0.4-0.3-1 0.2-1.4 0.4-0.3 1.1-0.2 1.4 0.2l4 5c0.4 0.4 0.3 1-0.2 1.4-0.4 0.3-1 0.3-1.4-0.2zm-28.1-60c-0.3-0.4-0.2-1 0.3-1.3 0.5-0.4 1.1-0.2 1.4 0.2l3.6 5.4c0.3 0.4 0.2 1-0.2 1.3-0.5 0.3-1.1 0.2-1.4-0.2zm15.3 22.1c-0.3-0.5-0.2-1.1 0.3-1.4 0.4-0.3 1-0.2 1.3 0.3l3.7 5.3c0.3 0.4 0.2 1.1-0.3 1.4-0.4 0.3-1.1 0.2-1.4-0.3zm-8.3-11c-0.3-0.4-0.3-1 0.2-1.4 0.4-0.3 1-0.3 1.4 0.2l4 5c0.4 0.4 0.3 1-0.2 1.4-0.4 0.3-1 0.3-1.4-0.2zm15.3 22.1c-0.3-0.4-0.2-1 0.2-1.4 0.4-0.3 1.1-0.2 1.4 0.2l4.1 5c0.3 0.4 0.2 1-0.2 1.4-0.5 0.3-1.1 0.3-1.4-0.2zm8.3 11c-0.3-0.4-0.2-1 0.3-1.3 0.4-0.4 1.1-0.2 1.4 0.2l3.6 5.4c0.3 0.4 0.2 1-0.3 1.3-0.4 0.3-1.1 0.2-1.4-0.2zm7 11.1c-0.3-0.4-0.2-1.1 0.2-1.4 0.4-0.4 1.1-0.3 1.4 0.1l4 5c0.4 0.5 0.3 1.1-0.1 1.4-0.5 0.4-1.1 0.3-1.4-0.1zm-28.2-60c-0.3-0.5-0.2-1.1 0.3-1.4 0.5-0.3 1.1-0.2 1.4 0.3l3.7 5.3c0.3 0.4 0.1 1.1-0.3 1.4-0.5 0.3-1.1 0.2-1.4-0.3zm15.3 22.1c-0.3-0.4-0.2-1 0.3-1.3 0.4-0.4 1.1-0.3 1.4 0.2l3.6 5.3c0.3 0.5 0.2 1.1-0.3 1.4-0.4 0.3-1 0.2-1.4-0.2zm-8.3-11c-0.3-0.4-0.2-1.1 0.2-1.4 0.4-0.4 1.1-0.3 1.4 0.1l4 5c0.4 0.4 0.3 1.1-0.1 1.4-0.5 0.4-1.1 0.3-1.4-0.1zm15.3 22.1c-0.4-0.4-0.3-1.1 0.1-1.4 0.5-0.4 1.1-0.3 1.4 0.1l4.1 5c0.3 0.5 0.2 1.1-0.2 1.4-0.4 0.4-1.1 0.3-1.4-0.1zm8.3 11c-0.3-0.5-0.2-1.1 0.3-1.4 0.5-0.3 1.1-0.2 1.4 0.3l3.6 5.3c0.3 0.4 0.2 1.1-0.2 1.4-0.5 0.3-1.1 0.2-1.4-0.3zm7 11.1c-0.4-0.4-0.3-1 0.1-1.4 0.5-0.3 1.1-0.2 1.4 0.2l4.1 5c0.3 0.4 0.2 1-0.2 1.4-0.4 0.3-1.1 0.3-1.4-0.2zm-12.8-37.9c-0.4-0.4-0.2-1 0.2-1.3 0.5-0.4 1.1-0.2 1.4 0.2l3.7 5.3c0.3 0.5 0.2 1.1-0.3 1.4-0.5 0.3-1.1 0.2-1.4-0.2zm-8.3-11c-0.3-0.4-0.3-1.1 0.2-1.4 0.4-0.4 1-0.3 1.4 0.1l4 5c0.4 0.4 0.3 1.1-0.2 1.4-0.4 0.4-1 0.3-1.4-0.1zm15.3 22.1c-0.3-0.4-0.2-1.1 0.2-1.4 0.4-0.4 1.1-0.3 1.4 0.1l4 5c0.4 0.5 0.3 1.1-0.1 1.4-0.5 0.4-1.1 0.3-1.4-0.1zm-20.5-30.5l-1.8-2.7c-0.8-1.1 0.9-2.2 1.6-1.1l1.9 2.6 1.8 2.7c0.7 1.1-0.9 2.2-1.7 1.1zm0 0l1.7-1.1zm32.3 43.1c0.7 1-1 2.2-1.7 1.1l-1.8-2.7c-0.8-1.1 0.9-2.2 1.6-1.1l1.9 2.7 1.8 2.6c0.7 1.1-0.9 2.3-1.7 1.2l-1.8-2.7c-0.8-1.1 0.9-2.2 1.7-1.1zm-1.7 1.1l1.7-1.1zm5.1 8.4c-0.3-0.4-0.2-1.1 0.2-1.4 0.4-0.4 1.1-0.3 1.4 0.1l4 5c0.4 0.5 0.3 1.1-0.1 1.4-0.5 0.4-1.1 0.3-1.4-0.1zm-49.4 40.1c-0.3-0.5-0.1-1.1 0.4-1.4 0.4-0.3 1.1-0.2 1.3 0.3l3.5 5.4c0.3 0.5 0.1 1.1-0.3 1.4-0.5 0.3-1.1 0.2-1.4-0.3zm9.6-4.3c-0.3-0.5-0.1-1.1 0.3-1.4 0.5-0.3 1.1-0.2 1.4 0.3l3.5 5.4c0.3 0.5 0.1 1.1-0.3 1.4-0.5 0.3-1.1 0.2-1.4-0.3zm4.9 27c-0.3-0.4-0.2-1 0.3-1.3 0.5-0.3 1.1-0.2 1.4 0.3l3.4 5.4c0.3 0.5 0.2 1.1-0.3 1.4-0.5 0.3-1.1 0.2-1.4-0.3zm9.6-4.4c-0.3-0.4-0.1-1 0.4-1.3 0.4-0.3 1-0.2 1.3 0.3l3.5 5.4c0.3 0.5 0.1 1.1-0.3 1.4-0.5 0.3-1.1 0.2-1.4-0.3zm-17.5-6.9c-0.4-0.4-0.3-1.1 0.2-1.4 0.4-0.3 1.1-0.3 1.4 0.2l3.8 5.1c0.4 0.5 0.3 1.1-0.2 1.4-0.4 0.4-1.1 0.3-1.4-0.2zm9.6-4.3c-0.3-0.5-0.2-1.1 0.2-1.4 0.5-0.4 1.1-0.3 1.4 0.2l3.9 5.1c0.3 0.4 0.2 1.1-0.2 1.4-0.5 0.3-1.1 0.2-1.4-0.2zm4.8 27c-0.3-0.4-0.2-1.1 0.3-1.4 0.4-0.3 1-0.2 1.4 0.2l3.8 5.1c0.3 0.5 0.2 1.1-0.2 1.4-0.5 0.4-1.1 0.3-1.4-0.1zm9.6-4.4c-0.3-0.5-0.2-1.1 0.2-1.4 0.5-0.3 1.1-0.3 1.4 0.2l3.9 5.1c0.3 0.5 0.2 1.1-0.3 1.4-0.4 0.3-1 0.3-1.4-0.2zm-1.7 15.7c-0.2-0.5-0.1-1.1 0.4-1.4 0.5-0.3 1.1-0.1 1.4 0.3l3.4 5.5c0.3 0.4 0.2 1.1-0.3 1.4-0.5 0.3-1.1 0.1-1.4-0.3zm9.6-4.4c-0.3-0.5-0.1-1.1 0.4-1.4 0.4-0.3 1.1-0.2 1.3 0.3l3.5 5.5c0.3 0.4 0.2 1.1-0.3 1.4-0.5 0.3-1.1 0.1-1.4-0.3zm-3 15.7c-0.4-0.5-0.3-1.1 0.2-1.4 0.4-0.3 1.1-0.3 1.4 0.2l3.8 5.1c0.4 0.5 0.3 1.1-0.2 1.4-0.4 0.3-1.1 0.3-1.4-0.2zm9.6-4.4c-0.3-0.4-0.2-1 0.2-1.3 0.5-0.4 1.1-0.3 1.4 0.1l3.9 5.2c0.3 0.4 0.2 1-0.2 1.4-0.5 0.3-1.1 0.2-1.4-0.2zm-26-61c-0.3-0.5-0.1-1.1 0.3-1.4 0.5-0.3 1.1-0.1 1.4 0.3l3.5 5.5c0.3 0.5 0.1 1.1-0.4 1.4-0.4 0.3-1 0.1-1.3-0.3zm14.5 22.6c-0.3-0.4-0.2-1.1 0.3-1.4 0.5-0.3 1.1-0.1 1.4 0.3l3.4 5.5c0.3 0.5 0.2 1.1-0.3 1.4-0.5 0.3-1.1 0.1-1.4-0.3zm-7.9-11.3c-0.3-0.4-0.2-1.1 0.2-1.4 0.5-0.3 1.1-0.2 1.4 0.2l3.9 5.1c0.3 0.5 0.2 1.1-0.2 1.4-0.5 0.4-1.1 0.3-1.4-0.2zm14.5 22.7c-0.4-0.5-0.3-1.1 0.2-1.4 0.4-0.4 1.1-0.3 1.4 0.2l3.8 5.1c0.4 0.4 0.3 1.1-0.2 1.4-0.4 0.3-1.1 0.2-1.4-0.2zm7.9 11.3c-0.3-0.5-0.1-1.1 0.3-1.4 0.5-0.3 1.1-0.1 1.4 0.3l3.5 5.5c0.3 0.5 0.1 1.1-0.3 1.4-0.5 0.3-1.1 0.1-1.4-0.3zm6.6 11.3c-0.4-0.4-0.3-1 0.2-1.4 0.4-0.3 1.1-0.2 1.4 0.2l3.8 5.2c0.4 0.4 0.3 1-0.2 1.3-0.4 0.4-1.1 0.3-1.4-0.1zm-26-61c-0.3-0.5-0.1-1.1 0.4-1.4 0.4-0.3 1.1-0.2 1.3 0.3l3.5 5.5c0.3 0.4 0.2 1-0.3 1.3-0.5 0.3-1.1 0.2-1.4-0.2zm14.5 22.6c-0.3-0.5-0.1-1.1 0.3-1.4 0.5-0.3 1.1-0.2 1.4 0.3l3.5 5.5c0.3 0.4 0.1 1.1-0.4 1.4-0.4 0.2-1.1 0.1-1.3-0.3zm-8-11.3c-0.3-0.5-0.2-1.1 0.3-1.4 0.4-0.4 1-0.3 1.4 0.2l3.8 5.1c0.3 0.4 0.2 1.1-0.2 1.4-0.5 0.3-1.1 0.2-1.4-0.2zm14.5 22.6c-0.3-0.4-0.2-1 0.2-1.4 0.5-0.3 1.1-0.2 1.4 0.2l3.9 5.2c0.3 0.4 0.2 1-0.3 1.4-0.4 0.3-1 0.2-1.4-0.2zm8 11.3c-0.3-0.5-0.2-1.1 0.3-1.4 0.5-0.3 1.1-0.2 1.4 0.3l3.4 5.5c0.3 0.4 0.2 1-0.3 1.3-0.5 0.3-1.1 0.2-1.4-0.2zm6.6 11.3c-0.3-0.4-0.2-1.1 0.2-1.4 0.5-0.3 1.1-0.2 1.4 0.2l3.9 5.1c0.3 0.5 0.2 1.1-0.3 1.4-0.4 0.4-1 0.3-1.4-0.2zm-25.9-60.9c-0.3-0.5-0.2-1.1 0.3-1.4 0.5-0.3 1.1-0.2 1.4 0.3l3.5 5.4c0.2 0.5 0.1 1.1-0.4 1.4-0.4 0.3-1.1 0.2-1.4-0.3zm14.5 22.7c-0.3-0.5-0.1-1.1 0.4-1.4 0.4-0.3 1.1-0.2 1.4 0.3l3.4 5.5c0.3 0.4 0.2 1-0.3 1.3-0.5 0.3-1.1 0.2-1.4-0.3zm-7.9-11.3c-0.3-0.4-0.2-1 0.2-1.4 0.5-0.3 1.1-0.2 1.4 0.2l3.9 5.2c0.3 0.4 0.2 1-0.3 1.4-0.4 0.3-1 0.2-1.4-0.2zm14.5 22.6c-0.3-0.4-0.2-1 0.3-1.4 0.4-0.3 1-0.2 1.4 0.2l3.8 5.2c0.3 0.4 0.2 1-0.2 1.3-0.5 0.4-1.1 0.3-1.4-0.1zm7.9 11.3c-0.3-0.5-0.2-1.1 0.3-1.4 0.5-0.3 1.1-0.2 1.4 0.3l3.5 5.4c0.3 0.5 0.1 1.1-0.4 1.4-0.4 0.3-1.1 0.2-1.3-0.3zm6.5 11.4c-0.3-0.5-0.2-1.1 0.3-1.4 0.4-0.4 1-0.3 1.4 0.2l3.8 5.1c0.3 0.4 0.2 1.1-0.2 1.4-0.5 0.3-1.1 0.2-1.4-0.2zm-26-61c-0.3-0.4-0.1-1 0.3-1.3 0.5-0.3 1.1-0.2 1.4 0.2l3.5 5.5c0.3 0.5 0.1 1.1-0.3 1.4-0.5 0.3-1.1 0.2-1.4-0.3zm14.5 22.6c-0.3-0.4-0.2-1 0.3-1.3 0.5-0.3 1.1-0.2 1.4 0.3l3.5 5.4c0.2 0.5 0.1 1.1-0.4 1.4-0.5 0.3-1.1 0.2-1.4-0.3zm-7.9-11.3c-0.3-0.4-0.2-1 0.2-1.4 0.5-0.3 1.1-0.2 1.4 0.2l3.9 5.2c0.3 0.4 0.2 1-0.2 1.3-0.5 0.4-1.1 0.3-1.4-0.1zm14.5 22.6c-0.4-0.4-0.3-1.1 0.2-1.4 0.4-0.3 1.1-0.3 1.4 0.2l3.8 5.1c0.4 0.5 0.3 1.1-0.2 1.4-0.4 0.4-1.1 0.3-1.4-0.2zm7.9 11.3c-0.3-0.4-0.1-1 0.4-1.3 0.4-0.3 1.1-0.2 1.3 0.2l3.5 5.5c0.3 0.5 0.2 1.1-0.3 1.4-0.5 0.3-1.1 0.2-1.4-0.3zm6.6 11.3c-0.3-0.4-0.2-1 0.2-1.4 0.5-0.3 1.1-0.2 1.4 0.2l3.9 5.2c0.3 0.4 0.2 1-0.3 1.4-0.4 0.3-1.1 0.2-1.4-0.2zm-11.4-38.4c-0.3-0.4-0.2-1 0.3-1.3 0.5-0.3 1.1-0.2 1.4 0.3l3.4 5.4c0.3 0.5 0.2 1.1-0.3 1.4-0.5 0.3-1.1 0.2-1.4-0.3zm-7.9-11.3c-0.3-0.4-0.2-1 0.2-1.4 0.5-0.3 1.1-0.2 1.4 0.2l3.9 5.2c0.3 0.4 0.2 1-0.2 1.3-0.5 0.4-1.1 0.3-1.4-0.1zm14.5 22.6c-0.4-0.4-0.3-1.1 0.2-1.4 0.4-0.3 1.1-0.2 1.4 0.2l3.8 5.1c0.4 0.5 0.3 1.1-0.2 1.4-0.4 0.4-1.1 0.3-1.4-0.2zm-19.4-31.2l-1.7-2.7c-0.7-1.1 1-2.2 1.7-1.1l1.8 2.7 1.7 2.8c0.7 1.1-1 2.1-1.7 1zm0 0l1.7-1zm30.7 44.1c0.7 1.2-1 2.2-1.7 1.1l-1.8-2.7c-0.7-1.1 1.1-2.2 1.8-1.1l1.7 2.7 1.7 2.8c0.7 1.1-1 2.2-1.7 1.1l-1.7-2.8c-0.7-1.1 1-2.2 1.7-1.1zm-1.7 1.1l1.7-1.1zm4.8 8.6c-0.3-0.4-0.2-1 0.3-1.3 0.4-0.4 1-0.3 1.4 0.1l3.8 5.2c0.3 0.4 0.2 1-0.2 1.4-0.5 0.3-1.1 0.2-1.4-0.2zm-383.2-162.3c-0.6-0.1-0.9-0.6-0.7-1.2 0.1-0.5 0.7-0.8 1.2-0.7l6.4 1.6c0.5 0.1 0.8 0.7 0.7 1.2-0.2 0.5-0.7 0.9-1.3 0.7zm4.2-9.6c-0.5-0.1-0.9-0.6-0.7-1.2 0.1-0.5 0.7-0.8 1.2-0.7l6.4 1.6c0.5 0.1 0.8 0.7 0.7 1.2-0.1 0.5-0.7 0.8-1.2 0.7zm22.3 16c-0.5-0.1-0.9-0.6-0.7-1.2 0.1-0.5 0.7-0.8 1.2-0.7l6.4 1.6c0.5 0.1 0.8 0.7 0.7 1.2-0.1 0.5-0.7 0.9-1.2 0.7zm4.1-9.6c-0.5-0.1-0.8-0.7-0.7-1.2 0.2-0.5 0.7-0.8 1.3-0.7l6.3 1.6c0.6 0.1 0.9 0.7 0.7 1.2-0.1 0.5-0.7 0.8-1.2 0.7zm-17.9 6.9c-0.5-0.1-0.9-0.6-0.8-1.2 0.1-0.5 0.6-0.9 1.2-0.8l6.4 1.1c0.6 0.1 0.9 0.6 0.8 1.1-0.1 0.6-0.6 0.9-1.2 0.8zm4.2-9.6c-0.5 0-0.9-0.6-0.8-1.1 0.1-0.5 0.6-0.9 1.2-0.8l6.4 1.1c0.6 0.1 0.9 0.6 0.8 1.1-0.1 0.6-0.6 0.9-1.2 0.8zm22.4 16.1c-0.6-0.1-0.9-0.6-0.8-1.2 0.1-0.5 0.6-0.9 1.1-0.8l6.5 1.1c0.5 0.1 0.9 0.6 0.8 1.1-0.1 0.6-0.7 0.9-1.2 0.8zm4.2-9.6c-0.6 0-0.9-0.6-0.8-1.1 0.1-0.5 0.6-0.9 1.1-0.8l6.5 1.1c0.5 0.1 0.9 0.6 0.8 1.1-0.1 0.6-0.7 0.9-1.2 0.8zm9.6 12.4c-0.6-0.1-0.9-0.7-0.7-1.2 0.1-0.5 0.7-0.9 1.2-0.7l6.4 1.5c0.5 0.2 0.8 0.7 0.7 1.2-0.2 0.6-0.7 0.9-1.3 0.8zm4.2-9.6c-0.5-0.2-0.9-0.7-0.7-1.2 0.1-0.6 0.7-0.9 1.2-0.8l6.4 1.6c0.5 0.2 0.8 0.7 0.7 1.2-0.1 0.6-0.7 0.9-1.2 0.8zm8.6 13.2c-0.6-0.1-0.9-0.6-0.8-1.1 0.1-0.6 0.6-0.9 1.1-0.8l6.5 1.1c0.5 0.1 0.9 0.6 0.8 1.1-0.1 0.5-0.7 0.9-1.2 0.8zm4.2-9.6c-0.6-0.1-0.9-0.6-0.8-1.1 0.1-0.6 0.6-0.9 1.1-0.8l6.5 1.1c0.5 0 0.9 0.6 0.8 1.1-0.1 0.5-0.7 0.9-1.2 0.8zm-61.6-26.1c-0.5-0.2-0.8-0.7-0.7-1.2 0.2-0.6 0.7-0.9 1.2-0.7l6.4 1.5c0.6 0.2 0.9 0.7 0.7 1.2-0.1 0.6-0.7 0.9-1.2 0.8zm26.5 6.4c-0.6-0.1-0.9-0.7-0.7-1.2 0.1-0.5 0.7-0.9 1.2-0.7l6.4 1.5c0.5 0.2 0.8 0.7 0.7 1.3-0.2 0.5-0.7 0.8-1.3 0.7zm-13.7-2.8c-0.5-0.1-0.9-0.6-0.8-1.1 0.1-0.6 0.7-0.9 1.2-0.8l6.4 1.1c0.6 0 0.9 0.6 0.8 1.1-0.1 0.5-0.6 0.9-1.2 0.8zm26.5 6.4c-0.5-0.1-0.9-0.6-0.8-1.1 0.2-0.5 0.7-0.9 1.2-0.8l6.5 1.1c0.5 0.1 0.9 0.6 0.8 1.1-0.2 0.6-0.7 0.9-1.2 0.8zm13.7 2.8c-0.5-0.2-0.9-0.7-0.7-1.2 0.1-0.6 0.7-0.9 1.2-0.7l6.4 1.5c0.5 0.2 0.9 0.7 0.7 1.2-0.1 0.6-0.7 0.9-1.2 0.8zm12.7 3.6c-0.5-0.1-0.9-0.6-0.8-1.1 0.1-0.6 0.7-0.9 1.2-0.8l6.5 1.1c0.5 0.1 0.9 0.6 0.7 1.1-0.1 0.6-0.6 0.9-1.1 0.8zm-61.6-26.1c-0.5-0.1-0.9-0.7-0.7-1.2 0.1-0.5 0.7-0.9 1.2-0.7l6.4 1.6c0.5 0.1 0.8 0.6 0.7 1.2-0.2 0.5-0.7 0.8-1.2 0.7zm26.4 6.4c-0.5-0.1-0.8-0.7-0.7-1.2 0.2-0.5 0.7-0.9 1.3-0.7l6.4 1.6c0.5 0.1 0.8 0.6 0.7 1.2-0.2 0.5-0.7 0.8-1.3 0.7zm-13.7-2.8c-0.6-0.1-0.9-0.6-0.8-1.1 0.1-0.5 0.6-0.9 1.2-0.8l6.4 1.1c0.6 0.1 0.9 0.6 0.8 1.1-0.1 0.6-0.6 0.9-1.2 0.8zm26.5 6.5c-0.5-0.1-0.9-0.7-0.8-1.2 0.1-0.5 0.7-0.9 1.2-0.8l6.4 1.1c0.6 0.1 0.9 0.6 0.8 1.1-0.1 0.6-0.6 0.9-1.2 0.8zm13.8 2.8c-0.6-0.1-0.9-0.7-0.7-1.2 0.1-0.5 0.7-0.9 1.2-0.7l6.4 1.6c0.5 0.1 0.8 0.6 0.7 1.2-0.2 0.5-0.7 0.8-1.3 0.7zm12.8 3.7c-0.5-0.1-0.9-0.7-0.8-1.2 0.1-0.5 0.6-0.9 1.2-0.8l6.4 1.1c0.6 0.1 0.9 0.6 0.8 1.1-0.1 0.6-0.6 0.9-1.2 0.8zm-61.5-26.1c-0.6-0.1-0.9-0.7-0.7-1.2 0.1-0.5 0.7-0.8 1.2-0.7l6.4 1.6c0.5 0.1 0.8 0.6 0.7 1.2-0.2 0.5-0.7 0.8-1.3 0.7zm26.5 6.4c-0.5-0.1-0.8-0.6-0.7-1.2 0.2-0.5 0.7-0.8 1.3-0.7l6.3 1.6c0.6 0.1 0.9 0.7 0.7 1.2-0.1 0.5-0.7 0.8-1.2 0.7zm-13.7-2.7c-0.6-0.1-0.9-0.6-0.8-1.2 0.1-0.5 0.6-0.9 1.2-0.8l6.4 1.1c0.5 0.1 0.9 0.6 0.8 1.1-0.1 0.6-0.7 0.9-1.2 0.8zm26.5 6.5c-0.6-0.1-0.9-0.6-0.8-1.2 0.1-0.5 0.6-0.9 1.2-0.8l6.4 1.1c0.6 0.1 0.9 0.6 0.8 1.1-0.1 0.6-0.6 1-1.2 0.9zm13.7 2.7c-0.5-0.1-0.8-0.7-0.7-1.2 0.2-0.5 0.7-0.8 1.3-0.7l6.4 1.6c0.5 0.1 0.8 0.6 0.7 1.2-0.2 0.5-0.7 0.8-1.3 0.7zm12.8 3.7c-0.6-0.1-0.9-0.6-0.8-1.2 0.1-0.5 0.6-0.9 1.2-0.8l6.4 1.1c0.5 0.1 0.9 0.6 0.8 1.1-0.1 0.6-0.6 0.9-1.2 0.9zm-61.6-26.2c-0.5-0.1-0.8-0.6-0.7-1.2 0.2-0.5 0.7-0.8 1.3-0.7l6.3 1.6c0.6 0.1 0.9 0.7 0.7 1.2-0.1 0.5-0.7 0.8-1.2 0.7zm26.5 6.4c-0.5-0.1-0.9-0.6-0.7-1.2 0.1-0.5 0.7-0.8 1.2-0.7l6.4 1.6c0.5 0.1 0.9 0.7 0.7 1.2-0.1 0.5-0.7 0.9-1.2 0.7zm-13.8-2.7c-0.5-0.1-0.9-0.6-0.7-1.2 0.1-0.5 0.6-0.9 1.1-0.8l6.5 1.1c0.5 0.1 0.9 0.6 0.8 1.2-0.2 0.5-0.7 0.9-1.2 0.8zm26.5 6.4c-0.6-0.1-0.9-0.6-0.8-1.2 0.1-0.5 0.6-0.9 1.2-0.8l6.4 1.1c0.5 0.1 0.9 0.6 0.8 1.2-0.1 0.5-0.7 0.9-1.2 0.8zm13.7 2.7c-0.5-0.1-0.8-0.6-0.7-1.2 0.2-0.5 0.7-0.8 1.3-0.7l6.3 1.6c0.6 0.1 0.9 0.7 0.7 1.2-0.1 0.5-0.7 0.8-1.2 0.7zm12.8 3.7c-0.6-0.1-0.9-0.6-0.8-1.2 0.1-0.5 0.6-0.9 1.1-0.8l6.5 1.1c0.5 0.1 0.9 0.6 0.8 1.2-0.1 0.5-0.7 0.9-1.2 0.8zm-35.1-19.7c-0.5-0.2-0.8-0.7-0.7-1.2 0.1-0.6 0.7-0.9 1.2-0.7l6.4 1.5c0.5 0.2 0.9 0.7 0.7 1.2-0.1 0.6-0.7 0.9-1.2 0.8zm-13.8-2.8c-0.5-0.1-0.9-0.6-0.7-1.1 0.1-0.6 0.6-0.9 1.1-0.8l6.5 1c0.5 0.1 0.9 0.6 0.8 1.2-0.1 0.5-0.7 0.9-1.2 0.8zm26.5 6.4c-0.6-0.1-0.9-0.6-0.8-1.1 0.1-0.6 0.6-0.9 1.2-0.8l6.4 1.1c0.5 0.1 0.9 0.6 0.8 1.1-0.1 0.5-0.7 0.9-1.2 0.8zm-36.1-9.3l-3.2-0.8c-1.2-0.3-0.7-2.2 0.6-1.9l3.2 0.8 3.2 0.8c1.2 0.3 0.7 2.2-0.6 1.9zm0 0l0.6-1.9zm53.5 10.9c1.3 0.3 0.7 2.2-0.6 1.9l-3.1-0.8c-1.3-0.3-0.8-2.2 0.5-1.9l3.2 0.8 3.2 0.8c1.3 0.3 0.7 2.2-0.6 1.9l-3.2-0.8c-1.3-0.3-0.7-2.2 0.6-1.9zm-0.6 1.9l0.6-1.9zm9.5 2.9c-0.5-0.1-0.9-0.6-0.7-1.2 0.1-0.5 0.6-0.9 1.1-0.8l6.5 1.1c0.5 0.1 0.9 0.6 0.8 1.2-0.1 0.5-0.7 0.9-1.2 0.8zm-188 23.6c-0.5-0.2-0.9-0.7-0.7-1.2 0.1-0.6 0.6-0.9 1.2-0.8l6.4 1.4c0.5 0.1 0.9 0.6 0.8 1.2-0.2 0.5-0.7 0.8-1.3 0.7zm3.9-9.7c-0.6-0.1-0.9-0.7-0.8-1.2 0.2-0.5 0.7-0.9 1.2-0.8l6.5 1.4c0.5 0.1 0.8 0.6 0.7 1.2-0.1 0.5-0.7 0.9-1.2 0.7zm22.9 15.3c-0.5-0.1-0.9-0.7-0.7-1.2 0.1-0.5 0.6-0.9 1.2-0.8l6.4 1.4c0.5 0.1 0.9 0.6 0.7 1.2-0.1 0.5-0.6 0.9-1.2 0.7zm3.9-9.7c-0.6-0.1-0.9-0.6-0.8-1.2 0.1-0.5 0.7-0.8 1.2-0.7l6.4 1.3c0.6 0.1 0.9 0.7 0.8 1.2-0.1 0.5-0.7 0.9-1.2 0.8zm-17.7 7.4c-0.5 0-0.9-0.5-0.8-1.1 0.1-0.5 0.6-0.9 1.1-0.8l6.5 0.8c0.6 0.1 0.9 0.6 0.9 1.1-0.1 0.6-0.7 1-1.2 0.9zm3.8-9.7c-0.5-0.1-0.9-0.6-0.8-1.1 0.1-0.6 0.6-1 1.1-0.9l6.5 0.9c0.6 0 0.9 0.5 0.8 1.1 0 0.5-0.6 0.9-1.1 0.8zm22.9 15.3c-0.6-0.1-0.9-0.6-0.8-1.2 0-0.5 0.6-0.9 1.1-0.8l6.5 0.9c0.5 0 0.9 0.5 0.8 1.1-0.1 0.5-0.6 0.9-1.1 0.8zm3.8-9.7c-0.6-0.1-0.9-0.6-0.8-1.1 0-0.6 0.6-0.9 1.1-0.9l6.5 0.9c0.5 0.1 0.9 0.6 0.8 1.1-0.1 0.6-0.6 0.9-1.1 0.9zm10 12c-0.6-0.1-0.9-0.7-0.8-1.2 0.1-0.5 0.7-0.9 1.2-0.8l6.5 1.4c0.5 0.1 0.8 0.6 0.7 1.2-0.1 0.5-0.7 0.8-1.2 0.7zm3.8-9.7c-0.5-0.1-0.9-0.6-0.7-1.2 0.1-0.5 0.6-0.9 1.2-0.7l6.4 1.3c0.6 0.1 0.9 0.7 0.8 1.2-0.2 0.5-0.7 0.9-1.2 0.8zm9 12.9c-0.5 0-0.9-0.5-0.8-1.1 0.1-0.5 0.6-0.9 1.1-0.8l6.5 0.8c0.6 0.1 0.9 0.6 0.8 1.1 0 0.6-0.6 1-1.1 0.9zm3.8-9.7c-0.5-0.1-0.9-0.6-0.8-1.2 0.1-0.5 0.6-0.9 1.1-0.8l6.5 0.9c0.6 0 0.9 0.5 0.8 1.1 0 0.5-0.6 0.9-1.1 0.8zm-62.5-23.9c-0.6-0.2-0.9-0.7-0.8-1.2 0.2-0.6 0.7-0.9 1.2-0.8l6.5 1.4c0.5 0.1 0.8 0.6 0.7 1.2-0.1 0.5-0.7 0.8-1.2 0.7zm26.7 5.5c-0.5-0.1-0.8-0.6-0.7-1.2 0.1-0.5 0.7-0.8 1.2-0.7l6.4 1.3c0.6 0.2 0.9 0.7 0.8 1.2-0.2 0.6-0.7 0.9-1.2 0.8zm-13.9-2.3c-0.5-0.1-0.9-0.6-0.8-1.1 0.1-0.5 0.6-0.9 1.1-0.9l6.5 0.9c0.6 0.1 0.9 0.6 0.8 1.1 0 0.6-0.6 1-1.1 0.9zm26.7 5.5c-0.5-0.1-0.9-0.6-0.8-1.1 0.1-0.6 0.6-1 1.1-0.9l6.5 0.9c0.6 0.1 0.9 0.6 0.8 1.1 0 0.5-0.6 0.9-1.1 0.9zm13.8 2.2c-0.5-0.1-0.9-0.6-0.7-1.2 0.1-0.5 0.6-0.8 1.2-0.7l6.4 1.3c0.6 0.2 0.9 0.7 0.8 1.2-0.2 0.6-0.7 0.9-1.2 0.8zm12.8 3.2c-0.5-0.1-0.9-0.6-0.8-1.1 0.1-0.5 0.6-0.9 1.2-0.8l6.4 0.8c0.6 0.1 1 0.6 0.9 1.1-0.1 0.6-0.6 1-1.2 0.9zm-62.5-24c-0.5-0.1-0.9-0.6-0.7-1.2 0.1-0.5 0.6-0.8 1.2-0.7l6.4 1.3c0.5 0.2 0.9 0.7 0.7 1.2-0.1 0.6-0.6 0.9-1.2 0.8zm26.8 5.5c-0.6-0.1-0.9-0.7-0.8-1.2 0.1-0.5 0.7-0.9 1.2-0.8l6.5 1.4c0.5 0.1 0.8 0.6 0.7 1.2-0.1 0.5-0.7 0.9-1.2 0.7zm-13.8-2.2c-0.6-0.1-1-0.6-0.9-1.1 0.1-0.6 0.6-1 1.2-0.9l6.4 0.9c0.6 0 1 0.5 0.9 1.1-0.1 0.5-0.6 0.9-1.2 0.8zm26.8 5.5c-0.6 0-1-0.5-0.9-1.1 0.1-0.5 0.6-0.9 1.2-0.8l6.4 0.8c0.6 0.1 1 0.6 0.9 1.2-0.1 0.5-0.6 0.9-1.2 0.8zm13.9 2.3c-0.6-0.1-0.9-0.7-0.8-1.2 0.1-0.5 0.7-0.9 1.2-0.8l6.4 1.4c0.6 0.1 0.9 0.6 0.8 1.2-0.1 0.5-0.7 0.9-1.2 0.7zm12.9 3.3c-0.6-0.1-0.9-0.6-0.9-1.1 0.1-0.6 0.6-1 1.2-0.9l6.5 0.9c0.5 0 0.9 0.5 0.8 1.1-0.1 0.5-0.6 0.9-1.2 0.8zm-62.5-23.9c-0.5-0.1-0.8-0.7-0.7-1.2 0.1-0.5 0.7-0.9 1.2-0.8l6.4 1.4c0.6 0.1 0.9 0.6 0.8 1.2-0.2 0.5-0.7 0.8-1.2 0.7zm26.7 5.5c-0.6-0.1-0.9-0.6-0.8-1.1 0.2-0.6 0.7-0.9 1.3-0.8l6.4 1.4c0.5 0.1 0.9 0.6 0.7 1.1-0.1 0.6-0.6 0.9-1.2 0.8zm-13.8-2.3c-0.6 0-0.9-0.5-0.8-1.1 0-0.5 0.6-0.9 1.1-0.8l6.5 0.8c0.5 0.1 0.9 0.6 0.8 1.1-0.1 0.6-0.6 1-1.1 0.9zm26.7 5.5c-0.6-0.1-0.9-0.6-0.9-1.1 0.1-0.6 0.6-0.9 1.2-0.9l6.5 0.9c0.5 0.1 0.9 0.6 0.8 1.1-0.1 0.6-0.6 0.9-1.1 0.9zm13.8 2.2c-0.6-0.1-0.9-0.6-0.8-1.1 0.2-0.6 0.7-0.9 1.2-0.8l6.5 1.4c0.5 0.1 0.9 0.6 0.7 1.1-0.1 0.6-0.6 0.9-1.2 0.8zm12.9 3.2c-0.5-0.1-0.9-0.6-0.8-1.1 0.1-0.5 0.6-0.9 1.1-0.8l6.5 0.8c0.5 0.1 0.9 0.6 0.8 1.1-0.1 0.6-0.6 1-1.1 0.9zm-62.5-24c-0.6-0.1-0.9-0.6-0.8-1.2 0.1-0.5 0.7-0.8 1.2-0.7l6.5 1.3c0.5 0.2 0.8 0.7 0.7 1.2-0.1 0.6-0.7 0.9-1.2 0.8zm26.7 5.5c-0.5-0.1-0.9-0.7-0.7-1.2 0.1-0.5 0.6-0.9 1.2-0.8l6.4 1.4c0.6 0.1 0.9 0.6 0.8 1.2-0.2 0.5-0.7 0.9-1.3 0.7zm-13.8-2.2c-0.5-0.1-0.9-0.6-0.8-1.1 0.1-0.6 0.6-1 1.1-0.9l6.5 0.9c0.6 0 0.9 0.5 0.8 1.1 0 0.5-0.6 0.9-1.1 0.8zm26.7 5.5c-0.5 0-0.9-0.5-0.8-1.1 0.1-0.5 0.6-0.9 1.1-0.8l6.5 0.8c0.5 0.1 0.9 0.6 0.8 1.2-0.1 0.5-0.6 0.9-1.1 0.8zm13.8 2.3c-0.5-0.1-0.9-0.7-0.7-1.2 0.1-0.5 0.6-0.9 1.2-0.8l6.4 1.4c0.5 0.1 0.9 0.6 0.8 1.2-0.2 0.5-0.7 0.9-1.3 0.7zm12.9 3.3c-0.5-0.1-0.9-0.6-0.8-1.1 0.1-0.6 0.6-1 1.2-0.9l6.4 0.9c0.6 0 0.9 0.5 0.9 1.1-0.1 0.5-0.6 0.9-1.2 0.8zm-35.8-18.4c-0.5-0.1-0.9-0.7-0.7-1.2 0.1-0.5 0.6-0.9 1.2-0.8l6.4 1.4c0.6 0.1 0.9 0.6 0.8 1.2-0.2 0.5-0.7 0.9-1.3 0.7zm-13.8-2.2c-0.5-0.1-0.9-0.6-0.8-1.2 0.1-0.5 0.6-0.9 1.1-0.8l6.5 0.9c0.6 0 0.9 0.5 0.8 1.1 0 0.5-0.6 0.9-1.1 0.8zm26.7 5.5c-0.5 0-0.9-0.5-0.8-1.1 0.1-0.5 0.6-0.9 1.1-0.8l6.5 0.8c0.5 0.1 0.9 0.6 0.8 1.2-0.1 0.5-0.6 0.9-1.1 0.8zm-36.4-8.1l-3.2-0.6c-1.3-0.3-0.9-2.2 0.4-2l3.2 0.7 3.3 0.7c1.3 0.3 0.8 2.2-0.5 1.9zm0 0l0.5-1.9zm53.9 9.1c1.3 0.2 0.8 2.2-0.5 1.9l-3.2-0.7c-1.3-0.3-0.8-2.2 0.5-1.9l3.2 0.7 3.2 0.6c1.3 0.3 0.8 2.3-0.5 2l-3.2-0.7c-1.3-0.3-0.8-2.2 0.5-1.9zm-0.5 1.9l0.5-1.9zm9.7 2.5c-0.6-0.1-1-0.6-0.9-1.1 0.1-0.6 0.6-0.9 1.2-0.9l6.4 0.9c0.6 0.1 1 0.6 0.9 1.1-0.1 0.6-0.6 0.9-1.2 0.9zm-171.4 31.2c-0.5-0.2-0.9-0.7-0.8-1.2 0.2-0.5 0.7-0.9 1.2-0.8l6.5 1.3c0.5 0.1 0.9 0.6 0.8 1.1-0.2 0.6-0.7 0.9-1.2 0.8zm3.6-9.8c-0.5-0.1-0.9-0.6-0.8-1.1 0.2-0.6 0.7-0.9 1.2-0.8l6.5 1.2c0.5 0.1 0.9 0.6 0.8 1.2-0.2 0.5-0.7 0.9-1.2 0.8zm23.1 14.8c-0.5-0.1-0.8-0.6-0.7-1.2 0.1-0.5 0.6-0.9 1.2-0.8l6.4 1.3c0.6 0.1 0.9 0.6 0.8 1.2-0.1 0.5-0.7 0.8-1.2 0.7zm3.7-9.7c-0.6-0.2-0.9-0.7-0.8-1.2 0.1-0.5 0.6-0.9 1.2-0.8l6.4 1.3c0.6 0.1 0.9 0.6 0.8 1.1-0.1 0.6-0.6 0.9-1.2 0.8zm-17.5 7.8c-0.6-0.1-0.9-0.6-0.9-1.1 0.1-0.6 0.6-1 1.2-0.9l6.5 0.7c0.5 0.1 0.9 0.6 0.8 1.1-0.1 0.6-0.6 1-1.1 0.9zm3.6-9.8c-0.5 0-0.9-0.5-0.8-1.1 0.1-0.5 0.6-0.9 1.1-0.8l6.5 0.7c0.5 0.1 0.9 0.6 0.9 1.1-0.1 0.6-0.6 0.9-1.2 0.9zm23.2 14.8c-0.6-0.1-0.9-0.5-0.9-1.1 0.1-0.5 0.6-0.9 1.2-0.9l6.5 0.8c0.5 0.1 0.9 0.5 0.8 1.1-0.1 0.5-0.6 0.9-1.1 0.9zm3.6-9.8c-0.5-0.1-0.9-0.6-0.8-1.1 0.1-0.6 0.6-1 1.1-0.9l6.5 0.8c0.6 0 0.9 0.5 0.9 1.1-0.1 0.5-0.6 0.9-1.2 0.8zm10.2 11.8c-0.5-0.1-0.8-0.6-0.7-1.1 0.1-0.6 0.6-0.9 1.2-0.8l6.4 1.3c0.6 0.1 0.9 0.6 0.8 1.1-0.1 0.6-0.7 0.9-1.2 0.8zm3.7-9.8c-0.6-0.1-0.9-0.6-0.8-1.2 0.1-0.5 0.6-0.8 1.2-0.7l6.4 1.2c0.6 0.1 0.9 0.6 0.8 1.2-0.1 0.5-0.7 0.9-1.2 0.8zm9.3 12.8c-0.5-0.1-0.9-0.6-0.8-1.1 0-0.6 0.5-1 1.1-0.9l6.5 0.7c0.5 0.1 0.9 0.6 0.8 1.1 0 0.6-0.6 1-1.1 0.9zm3.6-9.8c-0.5 0-0.9-0.5-0.8-1.1 0.1-0.5 0.6-0.9 1.1-0.9l6.5 0.8c0.6 0.1 1 0.6 0.9 1.1-0.1 0.5-0.6 0.9-1.2 0.9zm-62.9-22.9c-0.6-0.1-0.9-0.6-0.8-1.2 0.1-0.5 0.7-0.9 1.2-0.7l6.5 1.2c0.5 0.1 0.9 0.6 0.7 1.2-0.1 0.5-0.6 0.9-1.2 0.7zm26.9 5.1c-0.6-0.1-0.9-0.6-0.8-1.2 0.1-0.5 0.7-0.9 1.2-0.8l6.5 1.3c0.5 0.1 0.8 0.6 0.7 1.2-0.1 0.5-0.6 0.8-1.2 0.7zm-13.9-2c-0.5-0.1-0.9-0.6-0.8-1.1 0.1-0.5 0.6-0.9 1.1-0.9l6.5 0.8c0.6 0.1 1 0.5 0.9 1.1-0.1 0.5-0.6 0.9-1.2 0.9zm26.9 5c-0.6-0.1-1-0.6-0.9-1.1 0.1-0.5 0.6-0.9 1.1-0.9l6.5 0.8c0.6 0 1 0.5 0.9 1.1-0.1 0.5-0.6 0.9-1.1 0.9zm13.8 2c-0.5-0.1-0.9-0.6-0.7-1.2 0.1-0.5 0.6-0.9 1.2-0.8l6.4 1.3c0.6 0.1 0.9 0.6 0.8 1.2-0.1 0.5-0.7 0.8-1.2 0.7zm12.9 3c-0.5 0-0.9-0.5-0.8-1.1 0.1-0.5 0.6-0.9 1.1-0.8l6.5 0.7c0.6 0.1 0.9 0.6 0.9 1.1-0.1 0.6-0.6 1-1.2 0.9zm-62.9-22.9c-0.6-0.1-0.9-0.6-0.8-1.1 0.1-0.6 0.7-0.9 1.2-0.8l6.5 1.2c0.5 0.1 0.8 0.6 0.7 1.2-0.1 0.5-0.6 0.9-1.2 0.8zm26.9 5c-0.6-0.1-0.9-0.6-0.8-1.2 0.1-0.5 0.6-0.8 1.2-0.7l6.4 1.2c0.6 0.1 0.9 0.6 0.8 1.2-0.1 0.5-0.7 0.9-1.2 0.8zm-13.9-2.1c-0.5 0-0.9-0.5-0.8-1.1 0.1-0.5 0.6-0.9 1.1-0.8l6.5 0.7c0.6 0.1 0.9 0.6 0.9 1.1-0.1 0.6-0.6 0.9-1.2 0.9zm26.9 5c-0.6 0-1-0.5-0.9-1.1 0.1-0.5 0.6-0.9 1.1-0.8l6.5 0.7c0.6 0.1 1 0.6 0.9 1.1-0.1 0.5-0.6 0.9-1.2 0.9zm13.9 2c-0.5-0.1-0.9-0.6-0.8-1.2 0.2-0.5 0.7-0.8 1.2-0.7l6.5 1.2c0.5 0.1 0.9 0.6 0.8 1.2-0.2 0.5-0.7 0.9-1.2 0.8zm12.9 3c-0.5-0.1-0.9-0.6-0.8-1.1 0-0.6 0.6-1 1.1-0.9l6.5 0.7c0.5 0.1 0.9 0.6 0.8 1.1 0 0.6-0.5 1-1.1 0.9zm-62.9-22.9c-0.6-0.1-0.9-0.6-0.8-1.1 0.1-0.6 0.6-0.9 1.2-0.8l6.4 1.2c0.6 0.1 0.9 0.7 0.8 1.2-0.1 0.5-0.6 0.9-1.2 0.8zm26.8 5c-0.5-0.1-0.8-0.6-0.7-1.1 0.1-0.6 0.6-0.9 1.2-0.8l6.4 1.2c0.6 0.1 0.9 0.7 0.8 1.2-0.1 0.5-0.7 0.9-1.2 0.8zm-13.9-2.1c-0.5 0-0.9-0.5-0.8-1.1 0-0.5 0.6-0.9 1.1-0.8l6.5 0.7c0.5 0.1 0.9 0.6 0.8 1.1 0 0.6-0.5 1-1.1 0.9zm26.8 5c-0.5 0-0.9-0.5-0.8-1.1 0.1-0.5 0.6-0.9 1.1-0.8l6.5 0.7c0.6 0.1 0.9 0.6 0.9 1.1-0.1 0.6-0.6 1-1.2 0.9zm13.9 2c-0.5-0.1-0.9-0.6-0.8-1.1 0.2-0.6 0.7-0.9 1.2-0.8l6.5 1.2c0.5 0.1 0.9 0.7 0.8 1.2-0.2 0.5-0.7 0.9-1.2 0.8zm12.9 3c-0.5-0.1-0.9-0.6-0.8-1.1 0-0.6 0.5-0.9 1.1-0.9l6.5 0.8c0.5 0 0.9 0.5 0.8 1.1 0 0.5-0.6 0.9-1.1 0.8zm-63-22.8c-0.5-0.1-0.8-0.7-0.7-1.2 0.1-0.5 0.6-0.9 1.2-0.8l6.4 1.3c0.6 0.1 0.9 0.6 0.8 1.1-0.1 0.6-0.7 0.9-1.2 0.8zm26.8 5.1c-0.5-0.2-0.9-0.7-0.7-1.2 0.1-0.5 0.6-0.9 1.2-0.8l6.4 1.3c0.6 0.1 0.9 0.6 0.8 1.1-0.1 0.6-0.7 0.9-1.2 0.8zm-13.9-2c-0.5-0.1-0.9-0.6-0.8-1.1 0-0.6 0.5-1 1.1-0.9l6.5 0.8c0.5 0 0.9 0.5 0.8 1.1 0 0.5-0.6 0.9-1.1 0.8zm26.8 5.1c-0.5-0.1-0.9-0.6-0.8-1.1 0-0.6 0.6-1 1.1-0.9l6.5 0.7c0.5 0.1 0.9 0.6 0.9 1.1-0.1 0.6-0.6 1-1.2 0.9zm13.9 2.1c-0.6-0.2-0.9-0.7-0.8-1.2 0.1-0.5 0.7-0.9 1.2-0.8l6.5 1.3c0.5 0.1 0.9 0.6 0.7 1.1-0.1 0.6-0.6 0.9-1.2 0.8zm13 3c-0.6-0.1-0.9-0.5-0.9-1.1 0.1-0.5 0.6-0.9 1.2-0.9l6.5 0.8c0.5 0.1 0.9 0.5 0.8 1.1-0.1 0.5-0.6 0.9-1.1 0.9zm-36.1-17.9c-0.6-0.1-0.9-0.6-0.8-1.1 0.1-0.6 0.6-0.9 1.2-0.8l6.4 1.2c0.6 0.1 0.9 0.7 0.8 1.2-0.1 0.5-0.6 0.9-1.2 0.8zm-13.9-2.1c-0.5 0-0.9-0.5-0.8-1.1 0.1-0.5 0.6-0.9 1.1-0.8l6.5 0.7c0.6 0.1 0.9 0.6 0.9 1.1-0.1 0.6-0.6 1-1.2 0.9zm26.9 5c-0.6 0-1-0.5-0.9-1.1 0.1-0.5 0.6-0.9 1.1-0.8l6.5 0.7c0.6 0.1 1 0.6 0.9 1.1-0.1 0.6-0.6 1-1.2 0.9zm-36.5-7.4l-3.2-0.7c-1.3-0.2-0.9-2.2 0.4-1.9l3.2 0.6 3.3 0.6c1.3 0.3 0.8 2.2-0.5 2zm0 0l0.5-2zm54 8.2c1.3 0.2 0.9 2.2-0.4 1.9l-3.2-0.6c-1.3-0.3-0.9-2.2 0.4-1.9l3.2 0.6 3.3 0.6c1.3 0.3 0.8 2.2-0.5 2l-3.2-0.7c-1.3-0.2-0.9-2.2 0.4-1.9zm-0.4 1.9l0.4-1.9zm9.8 2.4c-0.6-0.1-1-0.6-0.9-1.1 0.1-0.6 0.6-1 1.1-0.9l6.5 0.7c0.6 0.1 1 0.6 0.9 1.1-0.1 0.6-0.6 1-1.1 0.9zm-18.3 157.7c-0.2 0.5-0.7 0.9-1.3 0.7-0.5-0.1-0.8-0.6-0.7-1.2l1.7-6.3c0.1-0.5 0.7-0.9 1.2-0.8 0.5 0.2 0.9 0.7 0.7 1.2zm-9.7-3.7c-0.1 0.6-0.7 0.9-1.2 0.8-0.5-0.2-0.9-0.7-0.7-1.2l1.6-6.4c0.1-0.5 0.7-0.8 1.2-0.7 0.6 0.1 0.9 0.6 0.8 1.2zm16.3-22.7c-0.1 0.5-0.6 0.8-1.2 0.7-0.5-0.1-0.8-0.6-0.7-1.2l1.6-6.3c0.2-0.6 0.7-0.9 1.3-0.8 0.5 0.2 0.8 0.7 0.7 1.2zm-9.7-3.7c-0.2 0.5-0.7 0.9-1.2 0.8-0.6-0.2-0.9-0.7-0.8-1.2l1.7-6.4c0.1-0.5 0.7-0.9 1.2-0.7 0.5 0.1 0.9 0.6 0.7 1.2zm6.9 17.3c-0.1 0.6-0.7 0.9-1.2 0.9-0.5-0.1-0.9-0.6-0.8-1.2l1.1-6.4c0.1-0.5 0.6-0.9 1.2-0.8 0.5 0.1 0.9 0.6 0.8 1.1zm-9.7-3.7c-0.1 0.6-0.6 0.9-1.2 0.9-0.5-0.1-0.9-0.6-0.8-1.2l1.2-6.4c0.1-0.5 0.6-0.9 1.1-0.8 0.6 0.1 0.9 0.6 0.9 1.1zm16.3-22.7c-0.1 0.6-0.6 1-1.1 0.9-0.6-0.1-0.9-0.6-0.8-1.2l1.1-6.4c0.1-0.5 0.6-0.9 1.2-0.8 0.5 0.1 0.9 0.6 0.8 1.1zm-9.7-3.7c-0.1 0.6-0.6 1-1.2 0.9-0.5-0.1-0.9-0.6-0.8-1.2l1.1-6.4c0.1-0.5 0.7-0.9 1.2-0.8 0.6 0.1 0.9 0.6 0.8 1.1zm12.6-9.9c-0.1 0.5-0.7 0.9-1.2 0.7-0.6-0.1-0.9-0.6-0.7-1.1l1.6-6.4c0.1-0.5 0.7-0.9 1.2-0.7 0.6 0.1 0.9 0.6 0.8 1.1zm-9.8-3.7c-0.1 0.6-0.6 0.9-1.2 0.8-0.5-0.1-0.8-0.7-0.7-1.2l1.6-6.4c0.2-0.5 0.7-0.8 1.3-0.7 0.5 0.1 0.8 0.6 0.7 1.2zm13.5-9.1c-0.1 0.6-0.6 1-1.2 0.9-0.5-0.1-0.9-0.6-0.8-1.2l1.2-6.3c0.1-0.6 0.6-1 1.1-0.9 0.6 0.1 1 0.6 0.9 1.2zm-9.8-3.8c0 0.6-0.6 1-1.1 0.9-0.6-0.1-0.9-0.6-0.8-1.2l1.1-6.4c0.1-0.5 0.6-0.9 1.2-0.8 0.5 0.1 0.9 0.6 0.8 1.1zm-26.9 61.9c-0.1 0.5-0.7 0.9-1.2 0.7-0.5-0.1-0.9-0.6-0.7-1.2l1.6-6.3c0.2-0.5 0.7-0.9 1.2-0.7 0.6 0.1 0.9 0.6 0.8 1.1zm6.6-26.4c-0.1 0.6-0.6 0.9-1.2 0.8-0.5-0.1-0.8-0.7-0.7-1.2l1.6-6.4c0.2-0.5 0.7-0.8 1.3-0.7 0.5 0.1 0.8 0.6 0.7 1.2zm-2.9 13.6c-0.1 0.6-0.6 1-1.2 0.9-0.5-0.1-0.9-0.6-0.8-1.2l1.2-6.3c0.1-0.6 0.6-1 1.1-0.9 0.6 0.1 1 0.6 0.9 1.2zm6.6-26.5c-0.1 0.6-0.6 1-1.1 0.9-0.6-0.1-0.9-0.6-0.8-1.2l1.1-6.3c0.1-0.6 0.6-1 1.2-0.9 0.5 0.1 0.9 0.6 0.8 1.2zm2.9-13.7c-0.2 0.5-0.7 0.9-1.3 0.7-0.5-0.1-0.8-0.6-0.7-1.2l1.7-6.3c0.1-0.5 0.7-0.9 1.2-0.8 0.5 0.2 0.8 0.7 0.7 1.2zm3.8-12.7c-0.1 0.5-0.6 0.9-1.1 0.8-0.6-0.1-1-0.6-0.9-1.1l1.2-6.4c0.1-0.5 0.6-0.9 1.2-0.8 0.5 0.1 0.9 0.6 0.8 1.1zm-26.9 61.8c-0.2 0.6-0.7 0.9-1.2 0.8-0.6-0.1-0.9-0.7-0.8-1.2l1.7-6.4c0.1-0.5 0.7-0.8 1.2-0.7 0.5 0.1 0.9 0.7 0.7 1.2zm6.7-26.4c-0.1 0.5-0.7 0.9-1.2 0.7-0.5-0.1-0.9-0.6-0.7-1.2l1.6-6.3c0.2-0.5 0.7-0.9 1.2-0.8 0.6 0.2 0.9 0.7 0.8 1.2zm-2.9 13.7c-0.1 0.5-0.6 0.9-1.2 0.8-0.5-0.1-0.9-0.6-0.8-1.1l1.2-6.4c0-0.5 0.6-0.9 1.1-0.8 0.6 0.1 0.9 0.6 0.8 1.1zm6.7-26.4c-0.1 0.5-0.6 0.9-1.2 0.8-0.5-0.1-0.9-0.6-0.8-1.1l1.2-6.4c0.1-0.5 0.6-0.9 1.1-0.8 0.6 0.1 1 0.6 0.9 1.1zm2.8-13.7c-0.1 0.6-0.7 0.9-1.2 0.8-0.5-0.1-0.8-0.7-0.7-1.2l1.6-6.4c0.2-0.5 0.7-0.8 1.3-0.7 0.5 0.1 0.8 0.7 0.7 1.2zm3.8-12.8c-0.1 0.6-0.6 1-1.2 0.9-0.5-0.1-0.9-0.6-0.8-1.2l1.2-6.3c0.1-0.6 0.6-1 1.1-0.9 0.6 0.1 0.9 0.6 0.8 1.2zm-26.8 61.8c-0.2 0.5-0.7 0.9-1.3 0.7-0.5-0.1-0.8-0.6-0.7-1.1l1.7-6.4c0.1-0.5 0.6-0.9 1.2-0.7 0.5 0.1 0.8 0.6 0.7 1.1zm6.7-26.4c-0.2 0.6-0.7 0.9-1.2 0.8-0.6-0.1-0.9-0.7-0.8-1.2l1.7-6.4c0.1-0.5 0.7-0.8 1.2-0.7 0.5 0.1 0.9 0.7 0.7 1.2zm-2.8 13.6c-0.1 0.6-0.7 1-1.2 0.9-0.6-0.1-0.9-0.6-0.8-1.2l1.1-6.3c0.1-0.6 0.6-1 1.2-0.9 0.5 0.1 0.9 0.6 0.8 1.2zm6.7-26.5c-0.1 0.6-0.6 1-1.2 0.9-0.5-0.1-0.9-0.6-0.8-1.2l1.2-6.3c0-0.6 0.6-1 1.1-0.9 0.6 0.1 0.9 0.6 0.8 1.2zm2.9-13.7c-0.1 0.5-0.7 0.9-1.2 0.7-0.6-0.1-0.9-0.6-0.7-1.2l1.6-6.3c0.1-0.5 0.7-0.9 1.2-0.7 0.6 0.1 0.9 0.6 0.8 1.1zm3.8-12.7c-0.1 0.5-0.7 0.9-1.2 0.8-0.6-0.1-0.9-0.6-0.8-1.1l1.1-6.4c0.1-0.5 0.6-0.9 1.2-0.8 0.5 0.1 0.9 0.6 0.8 1.1zm-26.9 61.9c-0.1 0.5-0.7 0.8-1.2 0.7-0.5-0.1-0.9-0.7-0.7-1.2l1.6-6.4c0.2-0.5 0.7-0.8 1.2-0.7 0.6 0.1 0.9 0.7 0.8 1.2zm6.7-26.4c-0.2 0.5-0.7 0.9-1.3 0.7-0.5-0.1-0.8-0.6-0.7-1.2l1.7-6.3c0.1-0.5 0.6-0.9 1.2-0.8 0.5 0.2 0.8 0.7 0.7 1.2zm-2.9 13.7c-0.1 0.5-0.6 0.9-1.1 0.8-0.6-0.1-0.9-0.6-0.9-1.1l1.2-6.4c0.1-0.5 0.6-0.9 1.2-0.8 0.5 0.1 0.9 0.6 0.8 1.1zm6.7-26.4c-0.1 0.5-0.7 0.9-1.2 0.8-0.6-0.1-0.9-0.6-0.8-1.1l1.1-6.4c0.1-0.5 0.6-0.9 1.2-0.8 0.5 0.1 0.9 0.6 0.8 1.1zm2.9-13.7c-0.2 0.6-0.7 0.9-1.2 0.8-0.6-0.1-0.9-0.7-0.8-1.2l1.7-6.4c0.1-0.5 0.7-0.8 1.2-0.7 0.5 0.1 0.9 0.7 0.7 1.2zm3.8-12.7c-0.1 0.5-0.6 0.9-1.1 0.8-0.6-0.1-0.9-0.6-0.8-1.1l1.1-6.4c0.1-0.6 0.6-1 1.2-0.9 0.5 0.1 0.9 0.6 0.8 1.2zm-20.2 35.4c-0.2 0.5-0.7 0.9-1.2 0.7-0.6-0.1-0.9-0.6-0.8-1.1l1.7-6.4c0.1-0.5 0.7-0.9 1.2-0.7 0.5 0.1 0.9 0.6 0.7 1.1zm-2.8 13.7c-0.1 0.5-0.7 0.9-1.2 0.8-0.6 0-0.9-0.6-0.8-1.1l1.1-6.4c0.1-0.5 0.6-0.9 1.2-0.8 0.5 0.1 0.9 0.6 0.8 1.1zm6.7-26.4c-0.1 0.6-0.6 0.9-1.2 0.8-0.5 0-0.9-0.5-0.8-1.1l1.1-6.4c0.1-0.5 0.7-0.9 1.2-0.8 0.6 0.1 0.9 0.6 0.8 1.1zm-9.6 36l-0.9 3.2c-0.3 1.3-2.2 0.8-1.9-0.5l0.8-3.2 0.8-3.1c0.4-1.3 2.3-0.9 2 0.4zm0 0l-2-0.4zm11.5-53.3c0.3-1.3 2.2-0.8 1.9 0.5l-0.8 3.1c-0.4 1.3-2.3 0.9-2-0.4l0.9-3.2 0.8-3.2c0.3-1.3 2.3-0.8 1.9 0.5l-0.8 3.2c-0.3 1.2-2.3 0.8-1.9-0.5zm1.9 0.5l-1.9-0.5zm2.9-9.6c-0.1 0.6-0.6 1-1.1 0.9-0.6-0.1-0.9-0.6-0.8-1.2l1.1-6.4c0.1-0.5 0.6-0.9 1.2-0.8 0.5 0.1 0.9 0.6 0.8 1.1z"/>
		</g>
	</g>
	<path id="Layer" fill-rule="evenodd" class="s3" d="m732.6 276.8c-74.8-13.2-104.2-54.1-93.1-117.1 11-62.7 52.5-90.7 127.3-77.5 74.5 13.2 104.2 54.1 93.2 116.6-11 62.7-52.9 91.2-127.4 78zm7.1-40.5c43 7.6 66.3-10.4 72.5-46 6.2-35.3-9.6-59.9-52.5-67.5-43-7.6-66.2 9.8-72.4 45.4-6.3 35.8 9.5 60.5 52.4 68.1z"/>
	<path id="Layer" fill-rule="evenodd" class="s3" d="m732.6 276.8c-74.8-13.2-104.2-54.1-93.1-117.1 11-62.7 52.5-90.7 127.3-77.5 74.5 13.2 104.2 54.1 93.2 116.6-11 62.7-52.9 91.2-127.4 78zm7.1-40.5c43 7.6 66.3-10.4 72.5-46 6.2-35.3-9.6-59.9-52.5-67.5-43-7.6-66.2 9.8-72.4 45.4-6.3 35.8 9.5 60.5 52.4 68.1z"/>
	<path id="Layer" class="s3" d="m661.6 108.3c13.2 6.1 33.3 14.6 49.2 20.8-12.5 7.8-20.1 21.2-23.3 39.3-6.3 35.8 9.6 60.4 52.7 68 43.1 7.6 66.6-10.4 72.8-45.9 4.9-27.8-4-49-29.2-60.4l35.4-30.3c36.4 20.3 49.8 54.2 41.8 99.2-11 62.6-53.1 91-127.9 77.9-75.1-13.3-104.7-54.1-93.6-117 3.8-21.3 11.1-38.6 22.1-51.6z"/>
	<path id="Layer" fill-rule="evenodd" class="s1" d="m762.2 44.7c-2.6-2.2-4.3-5.2-4.8-8.8-1.1-7.6 4.2-14.7 11.9-15.8 7.6-1 14.7 4.3 15.8 12 1.1 7.6-4.3 14.7-11.9 15.8q-1.3 0.1-2.5 0.1 23.7 10.8 18.5 29.5-6.5 23.5 0 35.5l-83-16q7.3-9.8 9-15c5.7-17.1 5.8-28.5 6.5-28.5q1.5 0 35-10.5 2.9 0.8 5.5 1.7z"/>
	<path id="Layer" class="s4" d="m784.9 77.5c-0.1-15.9-11.4-30.4-27.9-34l-4.9-1.1c-18.9-4.1-37.3 7.5-41.1 26.1l-2.1 10.2c-2.6 12.9 5.8 25.6 18.9 28.5l12.5 2.7-6.8 33.1q5.7 6.2 17.3 8.3 11.7 2.1 19.6-2.2l11.8-58.1q1.3-3.1 2-6.5 0.7-3.5 0.7-6.9v-0.1z"/>
	<g id="Clip-Path" clip-path="url(#cp3)">
		<g id="Layer">
			<path id="Layer" fill-rule="evenodd" class="s1" d="m737.4 115.8l21.1-6.4-19.1 0.4zm-6.8-49.5l9.8-3.8-1.2 5.7 14.7 3.1 20.3 20.2 4.3 19.6 3.5-12 14.4-39.4-41.5-28.1q-21 5.2-28.7 10.8-7.7 5.6-13.6 20z"/>
		</g>
	</g>
	<path id="Layer" fill-rule="evenodd" class="s3" d="m609.1 382.3l-16.2 56.6-52.2-15-12.2 42.4-67.2-19.2 12.2-42.5-184.3-52.8 16.2-56.6 230.6-108.6 67.2 19.2-46.3 161.5zm-230.7-66.1l111.5 31.9 27.3-95.1z"/>
	<g id="Clip-Path" clip-path="url(#cp4)">
		<g id="Layer">
			<path id="Layer" fill-rule="evenodd" class="s1" d="m430.2 337.5l8 79.5-18.5 47.5 32.5 18.5 53 46 11.5-9.5q12.4-13.1 14-21.5 1.7-8.4 53.5 0l-67.5-184.5z"/>
		</g>
	</g>
	<path id="Layer" fill-rule="evenodd" class="s3" d="m1155.5 346.4l31.1 49.9-46.1 28.8 23.4 37.4-59.2 37-23.4-37.4-162.6 101.6-31.2-49.9 73.6-244.1 59.2-37 89.1 142.5zm-203.6 127.1l98.4-61.5-52.5-83.9z"/>
	<g id="Clip-Path" clip-path="url(#cp5)">
		<g id="Layer">
			<path id="Layer" fill-rule="evenodd" class="s1" d="m917.2 447.5q-2 0-24.5 85.5l26.5 40 91.5-39.5-14.5-93q-77 7-79 7z"/>
		</g>
	</g>
	<path id="Layer" fill-rule="evenodd" class="s1" d="m730.7 66.5l-23.5-5q17.5-28 47.5-19c16.9 5.1 3.6 4.6-19.5 12.5q-4.2 1.5-4.5 11.5z"/>
	<path id="Layer" class="s1" d="m715.6 74.4q0.1 0.7 0.1 1.6c0 1.9-0.5 3.5-1.5 3.5-0.9 0-1.5-1.6-1.5-3.5 0-0.9 0.1-1.8 0.4-2.4-2.4-0.6-4.5-0.5-6.3 0.1-0.6 0.2-1.1-0.1-1.3-0.6-0.2-0.5 0.1-1.1 0.6-1.3 2.8-0.9 6-0.8 9.6 0.5q2.7 0.9 6.2 4.5c0.4 0.4 0.4 1.1 0 1.5-0.4 0.3-1 0.3-1.4-0.1q-2.9-2.9-4.9-3.8zm27.9 6.6c0.1 0.6 0.2 1.2 0.2 2 0 1.9-0.5 3.5-1.5 3.5-0.9 0-1.5-1.6-1.5-3.5 0-1 0.2-2 0.5-2.6-2-0.3-3.8-0.2-5.4 0.3-0.6 0.2-1.1-0.1-1.3-0.6-0.2-0.5 0.1-1.1 0.6-1.3 2.8-0.9 6-0.8 9.6 0.5q2.7 0.9 6.2 4.5c0.4 0.4 0.4 1.1 0 1.5-0.4 0.3-1 0.3-1.4-0.1q-3.3-3.3-5.4-4-0.3-0.1-0.6-0.2zm-12.9-3l-5.8 9.3 3.6 0.7c0.6 0.1 0.9 0.7 0.8 1.2-0.1 0.5-0.6 0.9-1.2 0.8l-5-1c-0.7-0.2-1-0.9-0.6-1.5l6.5-10.5c0.3-0.5 0.9-0.6 1.4-0.3 0.4 0.2 0.6 0.9 0.3 1.3zm-8.8 17.5c-0.5 0.1-1-0.4-1.1-0.9 0-0.6 0.4-1 0.9-1.1l15.5-1.5c0.6 0 1.1 0.4 1.1 0.9 0.1 0.6-0.3 1-0.9 1.1z"/>
	<path id="Layer" fill-rule="evenodd" class="s4" d="m764.4 84.3q7.7-7.7 14.8-1.2c7.2 6.5-0.9 18.7-9.4 18.5q-8.4-0.2-5.4-17.3z"/>
	<path id="Layer" fill-rule="evenodd" class="s4" d="m451.2 337.1l-8.3 20.1c-1.6 3.9-5.2 6.6-9.4 7.1q-0.8 0-1.6-0.1c-2.6-0.7-4.2-3.2-3.5-5.8l14.4-60.4 2.2-1c11.1-4.8 23.5-5.8 35.3-3q36.6 8.8 41.5 20.5 5.7 13.7 22.6 68.3c1 3.3-0.9 6.9-4.2 7.9q-0.1 0-0.2 0.1c-3.5 0.9-7.2-0.9-8.5-4.4l-17-44.9c-1.2-3.3-4.9-5-8.2-3.7-3.4 1.2-5.3 4.9-4.3 8.4l10.5 37.9c1.2 4.4-1.4 8.8-5.7 10q-0.3 0.1-0.5 0.2c-4.8 0.9-9.5-2-10.8-6.7l-10.4-38c-0.9-3.4-4.5-5.4-7.9-4.5q-0.2 0.1-0.4 0.2c-3.7 1.2-5.9 5.1-5.1 8.9l8.5 38.9c0.6 3-1.3 5.9-4.2 6.6q-0.9 0.1-1.7 0.1c-4.5-0.5-8.3-3.7-9.4-8.1zm513.8 88.7c8.4-1.9 17.2 0.4 23.7 6.1l11.5 10.1-11 26.5-24.1 60.4c-1.6 4-6 6-10.1 4.6q-0.1 0-0.2-0.1c-3.8-1.4-5.7-5.7-4.2-9.5l15.2-39.1q0.1-0.3 0.2-0.7c0.6-2.6-1.1-5.2-3.7-5.8q0 0-0.1 0c-3-0.7-5.9 1.3-6.6 4.3l-8.6 40.6q-0.1 0.2-0.1 0.3c-1.1 4.1-5.3 6.6-9.4 5.5-4.3-1.1-7.1-5.4-6.3-9.8l7.5-41.2c0.6-2.8-1.2-5.5-4-6.2q-0.3-0.1-0.7-0.1c-2.3-0.2-4.4 1.5-4.6 3.9l-3.3 40.7q-0.1 0.1-0.1 0.2c-0.5 5-5 8.6-10 8-5.1-0.5-8.8-5.1-8.4-10.3q5-53.3 10.6-66.7 5.2-12.5 46.8-21.7z"/>
	<path id="Layer" fill-rule="evenodd" class="s0" d="m533.7 573l78 218.5 108-71zm354.5-59l-86-20 31 263.5 160 9.5z"/>
	<path id="Layer" class="s1" d="m778.8 281.9c-0.2-0.5 0-1.1 0.5-1.3 0.5-0.2 1.1 0 1.3 0.5 9 21 21 31.4 36.1 31.4 0.6 0 1 0.5 1 1 0 0.6-0.4 1-1 1-16 0-28.7-10.9-37.9-32.6zm-16.1 70.7c0.5 0.2 0.7 0.8 0.4 1.3-0.2 0.5-0.8 0.7-1.3 0.5l-22-10.5c-0.5-0.2-0.7-0.8-0.5-1.3 0.3-0.5 0.9-0.7 1.4-0.5zm-62.5-165.4c-0.1-0.6 0.3-1.1 0.9-1.2 0.5-0.1 1 0.3 1.1 0.8l3 17c0.1 0.6-0.3 1.1-0.8 1.2-0.5 0.1-1.1-0.3-1.2-0.8z"/>
	<path id="Layer" class="s2" d="m495.7 366c5.8 0 10.5-4.7 10.5-10.5 0-5.8-4.7-10.5-10.5-10.5-5.8 0-10.5 4.7-10.5 10.5 0 5.8 4.7 10.5 10.5 10.5z"/>
	<path id="Layer" fill-rule="evenodd" class="s3" d="m379.6 525.7l13.3 7.7 11.3-8.4-2.6 13.5 8.6 3.7-7.3 5 3 12.8-11.3-7.4-8.4 8.4-1.6-11.8q-10.4-4.7-10.4-4.7 0 0 10.4-6zm647.8 50.3l19.8-7.9 0.5-19.6 12.5 14.4 11.4-6.3-0.7 12.3 16.6 7.7-17.8 6 2 16.3-14.3-8.2q-14 7.3-14 7.3 0 0 2.2-16.5zm-325.1-41l19.9 11.5 17-12.5-4 20 13 5.5-11 7.5 4.5 19-17-11-12.5 12.5-2.5-17.5q-15.5-7-15.5-7 0 0 15.5-9zm-78.5-243.3l13.6 8 11.6-8.7-2.7 13.8 8.9 3.8-7.5 5.2 3.1 13.2-11.7-7.6-8.6 8.6-1.7-12.1q-10.6-4.8-10.6-4.8 0 0 10.6-6.3z"/>
</svg>